<?xml version="1.0" encoding="UTF-8"?>
<!DOCTYPE svg PUBLIC "-//W3C//DTD SVG 1.1//EN" "http://www.w3.org/Graphics/SVG/1.1/DTD/svg11.dtd">
<!-- Creator: CorlDRAW X7 -->
<svg xmlns="http://www.w3.org/2000/svg" xml:space="preserve" width="8.5in" height="11in" version="1.1" style="shape-rendering:geometricPrecision; text-rendering:geometricPrecision; image-rendering:optimizeQuality; fill-rule:evenodd; clip-rule:evenodd"
viewBox="0 0 8500 11000"
 xmlns:xlink="http://www.w3.org/1999/xlink">
 <defs>
  <style type="text/css">
   <![CDATA[
    .fil2 {fill:#1B779B}
    .fil3 {fill:#308BC9}
    .fil4 {fill:#41B6C4}
    .fil5 {fill:#7FCDBB}
    .fil0 {fill:#ED1E79}
    .fil1 {fill:white}
   ]]>
  </style>
 </defs>
<symbol id="marcador" viewBox="4233 5494 34 46">
 <path class="fil0" d="M4250 5539c9,0 16,-8 16,-17 0,-9 -15,-27 -16,-27 -1,0 -16,18 -16,27 0,9 7,17 16,17zm0 -25c5,0 9,4 9,8 0,5 -4,9 -9,9 -5,0 -9,-4 -9,-9 0,-4 4,-8 9,-8z" _ngcontent-c18=""/>
 <path class="fil1" d="M4250 5494c2,0 17,20 17,28 0,10 -8,18 -17,18 -9,0 -17,-8 -17,-18 0,-8 15,-28 17,-28zm0 44c8,0 15,-7 15,-16 0,-7 -12,-23 -15,-26 -3,3 -15,19 -15,26 0,9 7,16 15,16zm0 -25c5,0 10,4 10,9 0,3 -1,5 -3,7 -2,2 -4,3 -7,3 -5,0 -10,-4 -10,-10 0,-5 5,-9 10,-9zm0 17c2,0 4,-1 6,-2 1,-2 2,-3 2,-6 0,-4 -4,-7 -8,-7 -4,0 -8,3 -8,7 0,5 4,8 8,8z" _ngcontent-c18=""/>
</symbol>
 <g id="Layer_x0020_1">
  <metadata id="CorlCorpID_0Corl-Layer"/>
  <g id="_400004936" _ngcontent-c18="" vector-effect="non-scaling-stroke">
   <g _ngcontent-c18="" codigo="260005" nome="Abreu e Lima" link="/brasil/pe/abreu-e-lima" faixa="faixa4">
    <polygon class="{{cor}}" points="7250,4018 7316,4036 7356,4029 7363,4024 7412,4028 7416,4044 7388,4047 7377,4067 7329,4049 7309,4053 7281,4049 7269,4059 7258,4046 7212,4022 7191,3994 7176,3945 7209,3976 7210,3957 7238,3960 " _ngcontent-c18=""/>
   </g>
  </g>
  <g id="_400004648" _ngcontent-c18="" vector-effect="non-scaling-stroke">
   <g _ngcontent-c18="" codigo="260010" nome="Afogados da Ingazeira" link="/brasil/pe/afogados-da-ingazeira" faixa="faixa3">
    <polygon class="{{cor}}" points="5090,3811 5098,3832 5092,3837 5096,3866 5092,3876 5108,3879 5122,3909 5111,3933 5073,3967 5075,3973 5050,3994 5052,4003 5040,4031 4993,3969 4975,3961 4984,3952 4966,3934 4970,3918 4984,3916 4975,3899 4977,3854 4986,3816 4965,3792 4988,3784 5011,3792 5026,3810 5045,3800 5069,3802 " _ngcontent-c18=""/>
   </g>
  </g>
  <g id="_400003856" _ngcontent-c18="" vector-effect="non-scaling-stroke">
   <g _ngcontent-c18="" codigo="260020" nome="Afrânio" link="/brasil/pe/afranio" faixa="faixa2">
    <polygon class="{{cor}}" points="2243,4441 2251,4506 2255,4600 2288,4626 2289,4636 2311,4640 2310,4650 2332,4659 2200,4791 2177,4792 2172,4801 2172,4833 2159,4848 2142,4832 2124,4836 2107,4849 2097,4842 2102,4819 2093,4799 2035,4795 2013,4763 2027,4729 1972,4735 1930,4729 1919,4741 1897,4744 1884,4756 1861,4749 1836,4749 1815,4732 1833,4733 1865,4710 1876,4692 1907,4692 1946,4668 1941,4641 1969,4633 1980,4622 1995,4582 2015,4589 2046,4564 2058,4529 2081,4532 2083,4506 2090,4494 2118,4485 2124,4467 2142,4466 2154,4481 2187,4507 2208,4487 2205,4464 2219,4455 2212,4438 2217,4429 2234,4430 " _ngcontent-c18=""/>
   </g>
  </g>
  <g id="_400003976" _ngcontent-c18="" vector-effect="non-scaling-stroke">
   <g _ngcontent-c18="" codigo="260030" nome="Agrestina" link="/brasil/pe/agrestina" faixa="faixa3">
    <polygon class="{{cor}}" points="6502,4437 6518,4453 6501,4473 6506,4488 6522,4491 6517,4521 6531,4525 6531,4551 6520,4565 6538,4594 6521,4606 6501,4600 6480,4583 6461,4595 6461,4584 6432,4494 6425,4459 6427,4434 6440,4444 6440,4466 6459,4449 6459,4431 6482,4431 6482,4439 " _ngcontent-c18=""/>
   </g>
  </g>
  <g id="_400003928" _ngcontent-c18="" vector-effect="non-scaling-stroke">
   <g _ngcontent-c18="" codigo="260040" nome="Água Preta" link="/brasil/pe/agua-preta" faixa="faixa3">
    <polygon class="{{cor}}" points="6891,4593 6912,4593 6914,4602 6876,4625 6888,4663 6956,4711 6948,4737 7002,4747 7003,4766 6985,4817 6954,4828 6943,4844 6940,4843 6901,4845 6896,4826 6869,4836 6850,4826 6831,4830 6805,4848 6794,4852 6776,4841 6760,4820 6774,4791 6777,4762 6816,4740 6810,4711 6833,4690 6855,4669 6845,4621 6847,4602 6876,4558 6874,4568 " _ngcontent-c18=""/>
   </g>
  </g>
  <g id="_400002968" _ngcontent-c18="" vector-effect="non-scaling-stroke">
   <g _ngcontent-c18="" codigo="260050" nome="Águas Belas" link="/brasil/pe/aguas-belas" faixa="faixa4">
    <polygon class="{{cor}}" points="5686,4887 5688,4888 5669,4926 5669,4957 5650,4994 5637,5006 5624,5042 5585,5095 5592,5121 5609,5138 5619,5137 5613,5167 5595,5195 5576,5201 5560,5216 5551,5210 5525,5249 5523,5258 5523,5227 5494,5196 5472,5192 5460,5208 5431,5222 5426,5219 5434,5189 5401,5170 5412,5157 5434,5105 5432,5047 5438,5030 5472,4993 5487,4959 5509,4935 5524,4929 5532,4916 5567,4904 5578,4895 5623,4896 5657,4906 5662,4895 " _ngcontent-c18=""/>
   </g>
  </g>
  <g id="_400002920" _ngcontent-c18="" vector-effect="non-scaling-stroke">
   <g _ngcontent-c18="" codigo="260060" nome="Alagoinha" link="/brasil/pe/alagoinha" faixa="faixa2">
    <polygon class="{{cor}}" points="5780,4638 5763,4641 5763,4608 5756,4591 5722,4556 5726,4486 5726,4482 5732,4493 5758,4486 5829,4485 5851,4575 5820,4582 5809,4604 " _ngcontent-c18=""/>
   </g>
  </g>
  <g id="_400003352" _ngcontent-c18="" vector-effect="non-scaling-stroke">
   <g _ngcontent-c18="" codigo="260070" nome="Aliança" link="/brasil/pe/alianca" faixa="faixa3">
    <polygon class="{{cor}}" points="7160,3693 7175,3699 7190,3726 7204,3718 7213,3728 7209,3739 7185,3747 7170,3794 7191,3837 7178,3826 7180,3846 7159,3854 7162,3871 7154,3875 7137,3853 7114,3847 7089,3860 7073,3842 7075,3815 7061,3769 7077,3729 7108,3718 7117,3710 7153,3691 " _ngcontent-c18=""/>
   </g>
  </g>
  <g id="_400002584" _ngcontent-c18="" vector-effect="non-scaling-stroke">
   <g _ngcontent-c18="" codigo="260080" nome="Altinho" link="/brasil/pe/altinho" faixa="faixa3">
    <polygon class="{{cor}}" points="6461,4584 6437,4593 6434,4582 6422,4601 6366,4623 6353,4631 6289,4593 6236,4616 6204,4607 6225,4569 6247,4543 6319,4491 6321,4468 6332,4468 6350,4452 6368,4449 6373,4467 6380,4453 6427,4434 6425,4459 6432,4494 " _ngcontent-c18=""/>
   </g>
  </g>
  <g id="_400002320" _ngcontent-c18="" vector-effect="non-scaling-stroke">
   <g _ngcontent-c18="" codigo="260090" nome="Amaraji" link="/brasil/pe/amaraji" faixa="faixa3">
    <polygon class="{{cor}}" points="6947,4491 6930,4490 6912,4511 6900,4516 6865,4496 6846,4454 6834,4449 6824,4414 6816,4406 6841,4394 6841,4378 6857,4381 6866,4387 6881,4359 6894,4347 6938,4406 6974,4450 " _ngcontent-c18=""/>
   </g>
  </g>
  <g id="_400002656" _ngcontent-c18="" vector-effect="non-scaling-stroke">
   <g _ngcontent-c18="" codigo="260100" nome="Angelim" link="/brasil/pe/angelim" faixa="faixa1">
    <polygon class="{{cor}}" points="6176,4840 6180,4847 6205,4846 6206,4860 6226,4861 6248,4884 6233,4926 6214,4943 6171,4944 6156,4871 6163,4849 6140,4813 6151,4811 6163,4814 6162,4832 " _ngcontent-c18=""/>
   </g>
  </g>
  <g id="_400001792" _ngcontent-c18="" vector-effect="non-scaling-stroke">
   <g _ngcontent-c18="" codigo="260105" nome="Araçoiaba" link="/brasil/pe/aracoiaba" faixa="faixa2">
    <polygon class="{{cor}}" points="7250,4018 7238,3960 7210,3957 7209,3976 7176,3945 7201,3906 7211,3883 7218,3898 7250,3906 7263,3921 7262,3944 7279,3961 7269,3971 7265,4008 " _ngcontent-c18=""/>
   </g>
  </g>
  <g id="_400001744" _ngcontent-c18="" vector-effect="non-scaling-stroke">
   <g _ngcontent-c18="" codigo="260110" nome="Araripina" link="/brasil/pe/araripina" faixa="faixa4">
    <polygon class="{{cor}}" points="2688,3543 2751,3744 2707,3817 2676,3871 2681,3971 2688,3991 2592,4020 2592,4029 2572,4047 2559,4051 2550,4073 2538,4080 2532,4119 2503,4119 2517,4086 2515,4067 2522,3999 2519,3983 2496,3957 2430,3938 2405,3916 2411,3886 2438,3863 2450,3827 2446,3804 2429,3772 2399,3741 2379,3707 2370,3674 2381,3653 2414,3647 2424,3633 2513,3598 2519,3546 2534,3534 2555,3542 2599,3571 2612,3576 2646,3577 2675,3566 " _ngcontent-c18=""/>
   </g>
  </g>
  <g id="_400001480" _ngcontent-c18="" vector-effect="non-scaling-stroke">
   <g _ngcontent-c18="" codigo="260120" nome="Arcoverde" link="/brasil/pe/arcoverde" faixa="faixa4">
    <polygon class="{{cor}}" points="5658,4501 5637,4522 5628,4508 5599,4505 5587,4510 5580,4498 5566,4507 5566,4531 5552,4552 5494,4502 5453,4490 5444,4470 5464,4465 5484,4453 5511,4427 5531,4422 5554,4372 5580,4383 5614,4378 5618,4361 5639,4354 5651,4340 5650,4377 5620,4444 5617,4464 5636,4490 " _ngcontent-c18=""/>
   </g>
  </g>
  <g id="_400001360" _ngcontent-c18="" vector-effect="non-scaling-stroke">
   <g _ngcontent-c18="" codigo="260130" nome="Barra de Guabiraba" link="/brasil/pe/barra-de-guabiraba" faixa="faixa1">
    <polygon class="{{cor}}" points="6798,4493 6722,4547 6705,4502 6712,4459 6693,4443 6732,4447 6755,4444 6823,4425 6808,4448 6782,4478 " _ngcontent-c18=""/>
   </g>
  </g>
  <g id="_400001168" _ngcontent-c18="" vector-effect="non-scaling-stroke">
   <g _ngcontent-c18="" codigo="260140" nome="Barreiros" link="/brasil/pe/barreiros" faixa="faixa4">
    <polygon class="{{cor}}" points="7208,4799 7183,4835 7184,4866 7178,4837 7069,4859 7094,4883 7079,4887 6994,4864 6956,4854 6943,4844 6940,4843 6943,4844 6954,4828 6985,4817 7024,4805 7077,4797 7094,4775 7104,4772 7131,4789 7165,4790 7188,4813 " _ngcontent-c18=""/>
   </g>
  </g>
  <g id="_400000856" _ngcontent-c18="" vector-effect="non-scaling-stroke">
   <g _ngcontent-c18="" codigo="260150" nome="Belém de Maria" link="/brasil/pe/belem-de-maria" faixa="faixa1">
    <polygon class="{{cor}}" points="6585,4574 6595,4598 6606,4593 6595,4626 6607,4635 6642,4702 6598,4702 6601,4682 6585,4664 6576,4666 6561,4645 6564,4633 6573,4621 6559,4586 " _ngcontent-c18=""/>
   </g>
  </g>
  <g id="_400000016" _ngcontent-c18="" vector-effect="non-scaling-stroke">
   <g _ngcontent-c18="" codigo="260160" nome="Belém do São Francisco" link="/brasil/pe/belem-do-sao-francisco" faixa="faixa2">
    <polygon class="{{cor}}" points="4168,4657 3983,4721 3974,4747 3973,4798 3910,4808 3889,4816 3868,4806 3849,4778 3811,4754 3792,4753 3760,4743 3724,4736 3704,4719 3692,4731 3651,4734 3636,4712 3635,4680 3640,4674 3621,4652 3613,4625 3640,4588 3666,4581 3673,4563 3699,4564 3705,4551 3719,4567 3740,4549 3748,4526 3772,4509 3777,4479 3793,4474 3791,4454 3808,4449 3822,4444 3838,4449 3851,4444 3853,4428 3879,4425 3910,4429 3925,4407 3944,4421 3961,4467 3986,4502 3978,4523 3993,4533 3991,4560 4021,4565 4040,4584 4049,4613 4147,4639 4149,4651 " _ngcontent-c18=""/>
   </g>
  </g>
  <g id="_399999920" _ngcontent-c18="" vector-effect="non-scaling-stroke">
   <g _ngcontent-c18="" codigo="260170" nome="Belo Jardim" link="/brasil/pe/belo-jardim" faixa="faixa4">
    <polygon class="{{cor}}" points="6052,4248 6114,4301 6122,4316 6129,4311 6149,4264 6203,4261 6228,4267 6218,4283 6229,4302 6256,4316 6255,4328 6217,4360 6204,4366 6172,4369 6147,4377 6146,4399 6123,4457 6095,4458 6087,4445 6058,4466 6043,4456 6028,4468 6002,4475 5994,4468 6009,4453 6017,4393 5994,4399 5982,4387 6005,4370 6005,4351 6015,4340 6008,4322 5989,4322 5951,4358 5951,4366 5912,4305 5933,4299 5962,4303 6011,4237 6009,4231 " _ngcontent-c18=""/>
   </g>
  </g>
  <g id="_400000112" _ngcontent-c18="" vector-effect="non-scaling-stroke">
   <g _ngcontent-c18="" codigo="260180" nome="Betânia" link="/brasil/pe/betania" faixa="faixa1">
    <polygon class="{{cor}}" points="4873,4192 4884,4294 4869,4318 4846,4333 4837,4351 4842,4359 4832,4380 4839,4395 4832,4420 4802,4461 4789,4469 4770,4500 4739,4517 4691,4510 4678,4518 4648,4506 4639,4485 4604,4472 4566,4465 4560,4435 4553,4429 4543,4397 4544,4373 4556,4360 4566,4351 4560,4335 4579,4314 4596,4308 4608,4312 4618,4283 4656,4250 4668,4252 4686,4237 4726,4194 4760,4189 4762,4181 4779,4187 4812,4186 4840,4194 4855,4187 " _ngcontent-c18=""/>
   </g>
  </g>
  <g id="_399999224" _ngcontent-c18="" vector-effect="non-scaling-stroke">
   <g _ngcontent-c18="" codigo="260190" nome="Bezerros" link="/brasil/pe/bezerros" faixa="faixa4">
    <polygon class="{{cor}}" points="6732,4297 6682,4315 6677,4332 6643,4372 6627,4379 6633,4392 6613,4406 6599,4433 6568,4448 6556,4445 6518,4453 6502,4437 6529,4424 6561,4380 6553,4365 6562,4355 6538,4300 6531,4270 6564,4258 6576,4221 6736,4213 6753,4212 6730,4268 " _ngcontent-c18=""/>
   </g>
  </g>
  <g id="_399999320" _ngcontent-c18="" vector-effect="non-scaling-stroke">
   <g _ngcontent-c18="" codigo="260200" nome="Bodocó" link="/brasil/pe/bodoco" faixa="faixa3">
    <polygon class="{{cor}}" points="3068,3551 3069,3869 3146,3855 3191,4046 3112,4146 3094,4130 3088,4114 3069,4102 3063,4071 3044,4048 3035,4030 3048,3995 3041,3971 2977,3943 2939,3954 2915,3944 2909,3931 2896,3852 2850,3580 2876,3589 2947,3588 2985,3583 3049,3554 " _ngcontent-c18=""/>
   </g>
  </g>
  <g id="_399999824" _ngcontent-c18="" vector-effect="non-scaling-stroke">
   <g _ngcontent-c18="" codigo="260210" nome="Bom Conselho" link="/brasil/pe/bom-conselho" faixa="faixa4">
    <polygon class="{{cor}}" points="5975,5071 5977,5073 5994,5103 5991,5122 6000,5126 5981,5143 5986,5177 5997,5186 5994,5201 6003,5210 5941,5236 5946,5270 5910,5275 5896,5270 5879,5255 5856,5254 5831,5237 5778,5218 5747,5226 5712,5233 5687,5215 5676,5222 5673,5211 5682,5129 5771,5102 5758,5081 5771,5064 5787,5060 5796,5038 5827,5002 5841,5001 5840,5043 5825,5082 5868,5094 5894,5083 5910,5089 5949,5087 " _ngcontent-c18=""/>
   </g>
  </g>
  <g id="_399998408" _ngcontent-c18="" vector-effect="non-scaling-stroke">
   <g _ngcontent-c18="" codigo="260220" nome="Bom Jardim" link="/brasil/pe/bom-jardim" faixa="faixa4">
    <polygon class="{{cor}}" points="6935,3882 6902,3875 6881,3901 6878,3931 6885,3947 6864,3956 6850,3950 6805,3979 6782,3982 6707,3980 6704,3990 6686,3977 6683,3942 6688,3928 6718,3929 6719,3912 6745,3913 6767,3934 6792,3899 6824,3878 6830,3894 6851,3906 6879,3889 6912,3857 " _ngcontent-c18=""/>
   </g>
  </g>
  <g id="_399998720" _ngcontent-c18="" vector-effect="non-scaling-stroke">
   <g _ngcontent-c18="" codigo="260230" nome="Bonito" link="/brasil/pe/bonito" faixa="faixa4">
    <polygon class="{{cor}}" points="6798,4493 6809,4479 6820,4494 6812,4509 6825,4512 6817,4534 6829,4540 6803,4553 6790,4568 6767,4578 6751,4597 6744,4583 6695,4594 6693,4613 6699,4637 6673,4621 6667,4633 6646,4624 6629,4639 6607,4635 6595,4626 6606,4593 6595,4598 6585,4574 6592,4554 6575,4534 6588,4519 6600,4525 6638,4511 6638,4501 6657,4498 6643,4476 6646,4453 6673,4455 6693,4443 6712,4459 6705,4502 6722,4547 " _ngcontent-c18=""/>
   </g>
  </g>
  <g id="_399998312" _ngcontent-c18="" vector-effect="non-scaling-stroke">
   <g _ngcontent-c18="" codigo="260240" nome="Brejão" link="/brasil/pe/brejao" faixa="faixa1">
    <polygon class="{{cor}}" points="6022,5058 5977,5073 5975,5071 5965,5071 5965,5053 5935,5040 5933,5028 5917,5013 5925,5004 5930,4973 5950,4975 5943,4964 5960,4944 5976,4955 5998,4945 6020,4958 " _ngcontent-c18=""/>
   </g>
  </g>
  <g id="_399997784" _ngcontent-c18="" vector-effect="non-scaling-stroke">
   <g _ngcontent-c18="" codigo="260250" nome="Brejinho" link="/brasil/pe/brejinho" faixa="faixa1">
    <polygon class="{{cor}}" points="5347,3496 5347,3525 5337,3542 5328,3578 5339,3599 5322,3600 5302,3576 5274,3578 5269,3565 5264,3585 5255,3587 5243,3581 5218,3587 5200,3567 5214,3572 5240,3567 5271,3549 5264,3536 5289,3508 5302,3509 5324,3508 5335,3496 " _ngcontent-c18=""/>
   </g>
  </g>
  <g id="_399997688" _ngcontent-c18="" vector-effect="non-scaling-stroke">
   <g _ngcontent-c18="" codigo="260260" nome="Brejo da Madre de Deus" link="/brasil/pe/brejo-da-madre-de-deus" faixa="faixa4">
    <polygon class="{{cor}}" points="6292,4092 6338,4096 6338,4119 6301,4150 6291,4173 6279,4183 6291,4209 6290,4224 6280,4237 6288,4256 6306,4264 6315,4286 6329,4283 6306,4293 6294,4309 6268,4325 6256,4316 6229,4302 6218,4283 6228,4267 6203,4261 6149,4264 6129,4311 6122,4316 6114,4301 6052,4248 6107,4102 6052,4053 6070,4055 6089,4069 6107,4067 6114,4080 6151,4094 6183,4073 6208,4082 6239,4083 6281,4095 " _ngcontent-c18=""/>
   </g>
  </g>
  <g id="_399997472" _ngcontent-c18="" vector-effect="non-scaling-stroke">
   <g _ngcontent-c18="" codigo="260270" nome="Buenos Aires" link="/brasil/pe/buenos-aires" faixa="faixa1">
    <polygon class="{{cor}}" points="7034,3920 7023,3927 6958,3917 6947,3929 6919,3907 6941,3898 6965,3884 6978,3859 6990,3872 7019,3866 7041,3873 7073,3842 " _ngcontent-c18=""/>
   </g>
  </g>
  <g id="_399997184" _ngcontent-c18="" vector-effect="non-scaling-stroke">
   <g _ngcontent-c18="" codigo="260280" nome="Buíque" link="/brasil/pe/buique" faixa="faixa4">
    <polygon class="{{cor}}" points="5552,4552 5510,4582 5532,4589 5570,4588 5582,4602 5597,4735 5578,4895 5567,4904 5532,4916 5524,4929 5509,4935 5487,4959 5485,4950 5492,4945 5502,4914 5496,4894 5505,4868 5473,4829 5437,4793 5440,4784 5422,4782 5414,4770 5389,4763 5369,4766 5350,4761 5323,4723 5322,4692 5312,4676 5380,4471 5398,4483 5423,4480 5444,4470 5453,4490 5494,4502 " _ngcontent-c18=""/>
   </g>
  </g>
  <g id="_399997352" _ngcontent-c18="" vector-effect="non-scaling-stroke">
   <g _ngcontent-c18="" codigo="260290" nome="Cabo de Santo Agostinho" link="/brasil/pe/cabo-de-santo-agostinho" faixa="faixa4">
    <polygon class="{{cor}}" points="7241,4314 7290,4299 7303,4316 7303,4316 7303,4316 7303,4316 7303,4316 7303,4316 7317,4321 7329,4308 7329,4308 7333,4325 7352,4328 7359,4315 7365,4318 7344,4346 7338,4380 7345,4385 7340,4404 7350,4425 7335,4441 7308,4426 7303,4434 7275,4435 7256,4423 7239,4423 7224,4407 7203,4410 7176,4389 7166,4362 7128,4378 7115,4370 7091,4373 7091,4356 7081,4362 7068,4331 7082,4282 7088,4304 7101,4300 7111,4284 7157,4316 7155,4309 7169,4281 7193,4281 7229,4311 " _ngcontent-c18=""/>
   </g>
  </g>
  <g id="_399996032" _ngcontent-c18="" vector-effect="non-scaling-stroke">
   <g _ngcontent-c18="" codigo="260300" nome="Cabrobó" link="/brasil/pe/cabrobo" faixa="faixa3">
    <polygon class="{{cor}}" points="3808,4449 3791,4454 3793,4474 3777,4479 3772,4509 3748,4526 3740,4549 3719,4567 3705,4551 3699,4564 3673,4563 3666,4581 3640,4588 3613,4625 3601,4608 3551,4603 3541,4594 3515,4582 3489,4589 3473,4608 3458,4607 3438,4633 3437,4582 3405,4565 3374,4521 3364,4498 3362,4470 3369,4467 3368,4436 3382,4412 3357,4337 3383,4327 3417,4335 3445,4326 3463,4334 3495,4330 3521,4346 3521,4329 3532,4295 3543,4297 3575,4279 3588,4318 3633,4306 3668,4318 " _ngcontent-c18=""/>
   </g>
  </g>
  <g id="_399996680" _ngcontent-c18="" vector-effect="non-scaling-stroke">
   <g _ngcontent-c18="" codigo="260310" nome="Cachoeirinha" link="/brasil/pe/cachoeirinha" faixa="faixa2">
    <polygon class="{{cor}}" points="6241,4513 6247,4543 6225,4569 6204,4607 6198,4607 6148,4652 6152,4614 6170,4580 6158,4543 6128,4489 6123,4457 6148,4451 6144,4462 " _ngcontent-c18=""/>
   </g>
  </g>
  <g id="_399996560" _ngcontent-c18="" vector-effect="non-scaling-stroke">
   <g _ngcontent-c18="" codigo="260320" nome="Caetés" link="/brasil/pe/caetes" faixa="faixa3">
    <polygon class="{{cor}}" points="5969,4798 5931,4836 5945,4850 5966,4881 5906,4893 5907,4903 5877,4871 5860,4870 5859,4840 5780,4841 5763,4813 5780,4790 5767,4779 5768,4753 5829,4746 5893,4774 5899,4786 5936,4786 5955,4775 " _ngcontent-c18=""/>
   </g>
  </g>
  <g id="_399995504" _ngcontent-c18="" vector-effect="non-scaling-stroke">
   <g _ngcontent-c18="" codigo="260330" nome="Calçado" link="/brasil/pe/calcado" faixa="faixa1">
    <polygon class="{{cor}}" points="6219,4800 6176,4840 6162,4832 6163,4814 6151,4811 6114,4763 6116,4715 6105,4669 " _ngcontent-c18=""/>
   </g>
  </g>
  <g id="_399995960" _ngcontent-c18="" vector-effect="non-scaling-stroke">
   <g _ngcontent-c18="" codigo="260340" nome="Calumbi" link="/brasil/pe/calumbi" faixa="faixa1">
    <polygon class="{{cor}}" points="4607,4043 4636,4057 4639,4067 4650,4053 4665,4054 4680,4089 4619,4136 4633,4134 4668,4149 4680,4177 4696,4193 4762,4181 4760,4189 4726,4194 4686,4237 4626,4169 4581,4075 4565,4061 4569,4040 " _ngcontent-c18=""/>
   </g>
  </g>
  <g id="_399995648" _ngcontent-c18="" vector-effect="non-scaling-stroke">
   <g _ngcontent-c18="" codigo="260345" nome="Camaragibe" link="/brasil/pe/camaragibe" faixa="faixa4">
    <polygon class="{{cor}}" points="7296,4061 7293,4087 7329,4099 7326,4139 7300,4154 7286,4153 7282,4113 7288,4097 7288,4097 7287,4096 7287,4096 7283,4089 7283,4089 7283,4089 7283,4089 7281,4087 7281,4087 7270,4086 7267,4071 7271,4064 " _ngcontent-c18=""/>
   </g>
  </g>
  <g id="_399995192" _ngcontent-c18="" vector-effect="non-scaling-stroke">
   <g _ngcontent-c18="" codigo="260350" nome="Camocim de São Félix" link="/brasil/pe/camocim-de-sao-felix" faixa="faixa2">
    <polygon class="{{cor}}" points="6673,4455 6646,4453 6630,4444 6567,4459 6568,4448 6599,4433 6613,4406 6633,4392 6627,4379 6643,4372 6667,4393 6659,4417 " _ngcontent-c18=""/>
   </g>
  </g>
  <g id="_399995024" _ngcontent-c18="" vector-effect="non-scaling-stroke">
   <g _ngcontent-c18="" codigo="260360" nome="Camutanga" link="/brasil/pe/camutanga" faixa="faixa1">
    <polygon class="{{cor}}" points="7092,3640 7072,3622 7025,3670 7001,3624 7010,3618 7017,3622 7050,3609 7084,3625 " _ngcontent-c18=""/>
   </g>
  </g>
  <g id="_399994736" _ngcontent-c18="" vector-effect="non-scaling-stroke">
   <g _ngcontent-c18="" codigo="260370" nome="Canhotinho" link="/brasil/pe/canhotinho" faixa="faixa3">
    <polygon class="{{cor}}" points="6330,4843 6326,4848 6382,4893 6406,4905 6379,4911 6363,4933 6327,4944 6327,4970 6344,4983 6338,4999 6301,5012 6277,5002 6246,5004 6246,4988 6224,4984 6227,4942 6233,4926 6248,4884 6226,4861 6206,4860 6205,4846 6180,4847 6176,4840 6219,4800 6246,4737 6266,4736 6273,4736 6248,4806 6283,4798 6306,4816 6307,4835 " _ngcontent-c18=""/>
   </g>
  </g>
  <g id="_399994040" _ngcontent-c18="" vector-effect="non-scaling-stroke">
   <g _ngcontent-c18="" codigo="260380" nome="Capoeiras" link="/brasil/pe/capoeiras" faixa="faixa2">
    <polygon class="{{cor}}" points="6014,4729 5996,4732 6005,4740 5991,4753 5997,4763 5990,4786 6014,4808 5969,4798 5955,4775 5936,4786 5899,4786 5893,4774 5829,4746 5839,4700 5853,4689 5842,4668 5864,4634 5905,4603 5903,4614 5914,4634 5909,4644 5928,4640 5945,4656 5951,4676 5967,4659 5974,4690 6001,4708 " _ngcontent-c18=""/>
   </g>
  </g>
  <g id="_399994088" _ngcontent-c18="" vector-effect="non-scaling-stroke">
   <g _ngcontent-c18="" codigo="260390" nome="Carnaíba" link="/brasil/pe/carnaiba" faixa="faixa2">
    <polygon class="{{cor}}" points="4965,3792 4986,3816 4977,3854 4975,3899 4984,3916 4970,3918 4966,3934 4984,3952 4975,3961 4993,3969 5040,4031 5041,4032 5029,4036 5020,4056 4991,4086 4994,4095 4976,4108 4929,4011 4856,3969 4842,3952 4884,3910 4898,3849 4919,3854 4909,3842 4911,3826 4916,3835 4931,3824 4934,3808 4921,3794 4929,3785 " _ngcontent-c18=""/>
   </g>
  </g>
  <g id="_399994232" _ngcontent-c18="" vector-effect="non-scaling-stroke">
   <g _ngcontent-c18="" codigo="260392" nome="Carnaubeira da Penha" link="/brasil/pe/carnaubeira-da-penha" faixa="faixa1">
    <polygon class="{{cor}}" points="4236,4370 4168,4657 4168,4657 4149,4651 4147,4639 4049,4613 4040,4584 4021,4565 3991,4560 3993,4533 3978,4523 3986,4502 3961,4467 3944,4421 3925,4407 3940,4392 3977,4369 4010,4325 4073,4333 4089,4344 4150,4373 4168,4390 4218,4380 " _ngcontent-c18=""/>
   </g>
  </g>
  <g id="_399992984" _ngcontent-c18="" vector-effect="non-scaling-stroke">
   <g _ngcontent-c18="" codigo="260400" nome="Carpina" link="/brasil/pe/carpina" faixa="faixa4">
    <polygon class="{{cor}}" points="7034,3920 7079,3957 7102,3968 7111,4027 7088,4026 7065,4029 7047,4014 7053,3984 7042,3967 7021,3975 7005,3968 6987,3974 6972,3965 6947,3971 6947,3929 6958,3917 7023,3927 " _ngcontent-c18=""/>
   </g>
  </g>
  <g id="_399993512" _ngcontent-c18="" vector-effect="non-scaling-stroke">
   <g _ngcontent-c18="" codigo="260410" nome="Caruaru" link="/brasil/pe/caruaru" faixa="faixa4">
    <polygon class="{{cor}}" points="6470,4113 6495,4116 6507,4126 6447,4246 6455,4266 6501,4297 6506,4283 6538,4300 6562,4355 6553,4365 6561,4380 6529,4424 6502,4437 6482,4439 6482,4431 6459,4431 6459,4449 6440,4466 6440,4444 6427,4434 6380,4453 6381,4434 6370,4330 6363,4319 6329,4283 6315,4286 6306,4264 6288,4256 6280,4237 6290,4224 6291,4209 6279,4183 6291,4173 6301,4150 6338,4119 6350,4126 6364,4141 6397,4127 6425,4125 6424,4111 6430,4101 " _ngcontent-c18=""/>
   </g>
  </g>
  <g id="_399992336" _ngcontent-c18="" vector-effect="non-scaling-stroke">
   <g _ngcontent-c18="" codigo="260415" nome="Casinhas" link="/brasil/pe/casinhas" faixa="faixa2">
    <polygon class="{{cor}}" points="6710,3866 6722,3895 6745,3913 6719,3912 6718,3929 6688,3928 6683,3942 6686,3977 6674,3977 6663,3963 6657,3972 6648,3957 6635,3936 6636,3925 6615,3898 6661,3871 6681,3870 6697,3858 " _ngcontent-c18=""/>
   </g>
  </g>
  <g id="_399992576" _ngcontent-c18="" vector-effect="non-scaling-stroke">
   <g _ngcontent-c18="" codigo="260420" nome="Catende" link="/brasil/pe/catende" faixa="faixa4">
    <polygon class="{{cor}}" points="6699,4637 6719,4637 6697,4667 6720,4699 6686,4751 6743,4751 6725,4759 6675,4812 6672,4777 6657,4769 6629,4782 6634,4768 6654,4745 6648,4726 6625,4735 6611,4723 6593,4731 6595,4704 6598,4702 6642,4702 6607,4635 6629,4639 6646,4624 6667,4633 6673,4621 " _ngcontent-c18=""/>
   </g>
  </g>
  <g id="_399992504" _ngcontent-c18="" vector-effect="non-scaling-stroke">
   <g _ngcontent-c18="" codigo="260430" nome="Cedro" link="/brasil/pe/cedro" faixa="faixa1">
    <polygon class="{{cor}}" points="3760,3924 3748,3929 3615,3940 3605,3907 3619,3884 3626,3864 3616,3850 3618,3833 3635,3855 3630,3867 3668,3854 3701,3876 3722,3879 3734,3886 " _ngcontent-c18=""/>
   </g>
  </g>
  <g id="_399992024" _ngcontent-c18="" vector-effect="non-scaling-stroke">
   <g _ngcontent-c18="" codigo="260440" nome="Chã de Alegria" link="/brasil/pe/cha-de-alegria" faixa="faixa1">
    <polygon class="{{cor}}" points="7153,4103 7120,4132 7104,4140 7100,4149 7072,4172 7073,4144 7085,4132 7076,4119 7090,4105 7098,4084 " _ngcontent-c18=""/>
   </g>
  </g>
  <g id="_399991592" _ngcontent-c18="" vector-effect="non-scaling-stroke">
   <g _ngcontent-c18="" codigo="260450" nome="Chã Grande" link="/brasil/pe/cha-grande" faixa="faixa2">
    <polygon class="{{cor}}" points="6918,4340 6894,4347 6881,4359 6866,4387 6857,4381 6854,4313 6880,4292 6872,4282 6909,4268 6926,4264 6921,4281 6927,4308 6914,4330 " _ngcontent-c18=""/>
   </g>
  </g>
  <g id="_399991832" _ngcontent-c18="" vector-effect="non-scaling-stroke">
   <g _ngcontent-c18="" codigo="260460" nome="Condado" link="/brasil/pe/condado" faixa="faixa3">
    <polygon class="{{cor}}" points="7234,3793 7226,3808 7201,3822 7192,3838 7191,3837 7170,3794 7185,3747 7209,3739 7213,3728 7244,3726 7257,3722 7250,3754 7231,3768 7244,3786 " _ngcontent-c18=""/>
   </g>
  </g>
  <g id="_399990680" _ngcontent-c18="" vector-effect="non-scaling-stroke">
   <g _ngcontent-c18="" codigo="260470" nome="Correntes" link="/brasil/pe/correntes" faixa="faixa2">
    <polygon class="{{cor}}" points="6266,5023 6253,5047 6231,5073 6204,5072 6213,5105 6206,5127 6186,5133 6157,5144 6142,5162 6131,5158 6128,5172 6125,5172 6087,5177 6076,5059 6067,5062 6051,5044 6033,5051 6081,5017 6118,5000 6125,5025 6140,5030 6180,5027 6216,5035 " _ngcontent-c18=""/>
   </g>
  </g>
  <g id="_399990944" _ngcontent-c18="" vector-effect="non-scaling-stroke">
   <g _ngcontent-c18="" codigo="260480" nome="Cortês" link="/brasil/pe/cortes" faixa="faixa1">
    <polygon class="{{cor}}" points="6912,4511 6904,4521 6865,4534 6865,4551 6852,4557 6829,4540 6817,4534 6825,4512 6812,4509 6820,4494 6809,4479 6798,4493 6782,4478 6808,4448 6823,4425 6824,4414 6834,4449 6846,4454 6865,4496 6900,4516 " _ngcontent-c18=""/>
   </g>
  </g>
  <g id="_399990824" _ngcontent-c18="" vector-effect="non-scaling-stroke">
   <g _ngcontent-c18="" codigo="260490" nome="Cumaru" link="/brasil/pe/cumaru" faixa="faixa2">
    <polygon class="{{cor}}" points="6736,4213 6576,4221 6572,4183 6607,4157 6618,4135 6642,4131 6643,4100 6658,4092 6702,4087 6733,4074 6771,4133 6746,4150 6745,4158 6724,4162 6735,4185 " _ngcontent-c18=""/>
   </g>
  </g>
  <g id="_399990056" _ngcontent-c18="" vector-effect="non-scaling-stroke">
   <g _ngcontent-c18="" codigo="260500" nome="Cupira" link="/brasil/pe/cupira" faixa="faixa3">
    <polygon class="{{cor}}" points="6538,4594 6535,4619 6544,4632 6564,4633 6561,4645 6522,4650 6479,4664 6460,4652 6437,4593 6461,4584 6461,4595 6480,4583 6501,4600 6521,4606 " _ngcontent-c18=""/>
   </g>
  </g>
  <g id="_399990200" _ngcontent-c18="" vector-effect="non-scaling-stroke">
   <g _ngcontent-c18="" codigo="260510" nome="Custódia" link="/brasil/pe/custodia" faixa="faixa3">
    <polygon class="{{cor}}" points="5106,4104 5132,4171 5115,4200 5113,4239 5127,4266 5127,4282 5107,4308 5112,4316 5088,4351 5079,4350 5067,4385 5056,4396 4976,4463 4893,4478 4884,4485 4895,4452 4881,4443 4845,4466 4821,4473 4802,4461 4832,4420 4839,4395 4832,4380 4842,4359 4837,4351 4846,4333 4869,4318 4884,4294 4873,4192 4882,4191 4887,4165 4911,4137 4922,4142 4965,4125 4976,4108 4994,4095 4991,4086 5020,4056 5029,4036 5041,4032 5069,4014 5068,4028 5082,4037 5083,4049 5097,4056 5094,4074 5074,4088 5065,4106 5088,4115 " _ngcontent-c18=""/>
   </g>
  </g>
  <g id="_399990368" _ngcontent-c18="" vector-effect="non-scaling-stroke">
   <g _ngcontent-c18="" codigo="260515" nome="Dormentes" link="/brasil/pe/dormentes" faixa="faixa2">
    <polygon class="{{cor}}" points="2611,4458 2622,4470 2653,4477 2675,4505 2681,4525 2677,4549 2683,4561 2662,4555 2659,4577 2646,4593 2626,4604 2613,4642 2601,4656 2616,4678 2487,4697 2332,4659 2310,4650 2311,4640 2289,4636 2288,4626 2255,4600 2251,4506 2243,4441 2264,4450 2280,4433 2281,4398 2303,4398 2313,4377 2327,4383 2335,4417 2346,4412 2368,4425 2380,4421 2394,4431 2401,4445 2418,4442 2429,4450 2449,4439 2492,4435 2518,4448 2528,4439 2559,4441 2575,4434 2596,4435 " _ngcontent-c18=""/>
   </g>
  </g>
  <g id="_399989768" _ngcontent-c18="" vector-effect="non-scaling-stroke">
   <g _ngcontent-c18="" codigo="260520" nome="Escada" link="/brasil/pe/escada" faixa="faixa4">
    <polygon class="{{cor}}" points="7176,4389 7164,4398 7149,4428 7130,4430 7130,4446 7091,4482 7122,4535 7090,4532 7061,4534 7061,4542 7047,4522 7036,4544 7025,4537 7014,4509 7027,4484 7001,4505 6998,4491 7001,4476 6982,4463 6989,4449 7010,4434 6998,4431 6987,4381 7004,4376 7038,4387 7064,4377 7058,4368 7068,4331 7081,4362 7091,4356 7091,4373 7115,4370 7128,4378 7166,4362 " _ngcontent-c18=""/>
   </g>
  </g>
  <g id="_399989336" _ngcontent-c18="" vector-effect="non-scaling-stroke">
   <g _ngcontent-c18="" codigo="260530" nome="Exu" link="/brasil/pe/exu" faixa="faixa3">
    <polygon class="{{cor}}" points="3377,3677 3377,3699 3364,3725 3371,3750 3350,3775 3329,3786 3329,3801 3316,3810 3326,3851 3317,3867 3286,3863 3263,3842 3243,3851 3211,3837 3188,3834 3146,3855 3069,3869 3068,3551 3081,3553 3109,3540 3134,3546 3209,3542 3239,3551 3269,3569 3291,3588 3308,3628 3331,3629 3355,3630 3363,3657 " _ngcontent-c18=""/>
   </g>
  </g>
  <g id="_399989480" _ngcontent-c18="" vector-effect="non-scaling-stroke">
   <g _ngcontent-c18="" codigo="260540" nome="Feira Nova" link="/brasil/pe/feira-nova" faixa="faixa2">
    <polygon class="{{cor}}" points="7034,4072 6962,4125 6902,4112 6915,4088 6939,4056 6966,4039 6982,4040 6990,4028 7017,4063 " _ngcontent-c18=""/>
   </g>
  </g>
  <g id="_399988616" _ngcontent-c18="" vector-effect="non-scaling-stroke">
   <g _ngcontent-c18="" codigo="260550" nome="Ferreiros" link="/brasil/pe/ferreiros" faixa="faixa1">
    <polygon class="{{cor}}" points="7092,3640 7120,3668 7135,3670 7160,3693 7153,3691 7117,3710 7096,3695 7068,3683 7067,3688 7033,3686 7025,3670 7072,3622 " _ngcontent-c18=""/>
   </g>
  </g>
  <g id="_399988928" _ngcontent-c18="" vector-effect="non-scaling-stroke">
   <g _ngcontent-c18="" codigo="260560" nome="Flores" link="/brasil/pe/flores" faixa="faixa3">
    <polygon class="{{cor}}" points="4842,3952 4856,3969 4929,4011 4976,4108 4965,4125 4922,4142 4911,4137 4887,4165 4882,4191 4873,4192 4855,4187 4840,4194 4812,4186 4779,4187 4762,4181 4696,4193 4680,4177 4668,4149 4633,4134 4619,4136 4680,4089 4665,4054 4688,4041 4711,4009 4702,3994 4702,3964 4692,3942 4710,3931 4736,3930 4747,3920 4794,3927 " _ngcontent-c18=""/>
   </g>
  </g>
  <g id="_399988376" _ngcontent-c18="" vector-effect="non-scaling-stroke">
   <g _ngcontent-c18="" codigo="260570" nome="Floresta" link="/brasil/pe/floresta" faixa="faixa3">
    <polygon class="{{cor}}" points="4556,4360 4544,4373 4543,4397 4553,4429 4560,4435 4566,4465 4604,4472 4639,4485 4648,4506 4678,4518 4691,4510 4739,4517 4770,4500 4789,4469 4802,4461 4821,4473 4845,4466 4881,4443 4895,4452 4884,4485 4893,4478 4837,4635 4769,4654 4752,4669 4751,4684 4732,4689 4716,4680 4689,4684 4676,4690 4668,4713 4654,4712 4647,4708 4616,4722 4588,4723 4546,4705 4530,4715 4509,4715 4486,4732 4481,4770 4461,4777 4447,4772 4429,4789 4387,4803 4361,4826 4330,4837 4316,4847 4305,4868 4296,4855 4268,4838 4234,4831 4218,4838 4202,4860 4186,4892 4184,4947 4162,4973 4129,4960 4116,4939 4112,4914 4139,4896 4143,4837 4138,4817 4148,4750 4157,4722 4173,4697 4168,4657 4236,4370 4245,4370 4273,4386 4275,4396 4291,4393 4287,4412 4279,4412 4264,4467 4263,4502 4281,4494 4306,4468 4322,4438 4351,4416 4349,4404 4360,4385 4393,4364 4439,4373 4460,4368 4482,4341 4500,4347 4532,4368 " _ngcontent-c18=""/>
   </g>
  </g>
  <g id="_399987704" _ngcontent-c18="" vector-effect="non-scaling-stroke">
   <g _ngcontent-c18="" codigo="260580" nome="Frei Miguelinho" link="/brasil/pe/frei-miguelinho" faixa="faixa2">
    <polygon class="{{cor}}" points="6602,4099 6601,4104 6570,4108 6565,4116 6539,4113 6532,4126 6507,4126 6495,4116 6470,4113 6462,4099 6466,4076 6463,4042 6472,4034 6511,4032 6511,4018 6543,4004 6588,4001 6592,4033 6599,4049 6590,4066 6592,4085 " _ngcontent-c18=""/>
   </g>
  </g>
  <g id="_399987752" _ngcontent-c18="" vector-effect="non-scaling-stroke">
   <g _ngcontent-c18="" codigo="260590" nome="Gameleira" link="/brasil/pe/gameleira" faixa="faixa3">
    <polygon class="{{cor}}" points="7068,4666 7032,4663 7001,4684 6988,4716 7003,4739 7002,4747 6948,4737 6956,4711 6888,4663 6876,4625 6914,4602 6912,4593 6891,4593 6898,4564 6926,4561 6927,4587 6960,4600 6989,4589 7009,4619 7039,4639 " _ngcontent-c18=""/>
   </g>
  </g>
  <g id="_399986864" _ngcontent-c18="" vector-effect="non-scaling-stroke">
   <g _ngcontent-c18="" codigo="260600" nome="Garanhuns" link="/brasil/pe/garanhuns" faixa="faixa4">
    <polygon class="{{cor}}" points="6014,4808 6051,4812 6036,4850 6048,4882 6063,4900 6076,4903 6091,4933 6089,4946 6109,4975 6118,5000 6081,5017 6033,5051 6022,5058 6020,4958 5998,4945 5976,4955 5960,4944 5943,4964 5950,4975 5930,4973 5925,5004 5917,5013 5885,5002 5895,4986 5886,4972 5891,4946 5911,4934 5907,4903 5906,4893 5966,4881 5945,4850 5931,4836 5969,4798 " _ngcontent-c18=""/>
   </g>
  </g>
  <g id="_399987032" _ngcontent-c18="" vector-effect="non-scaling-stroke">
   <g _ngcontent-c18="" codigo="260610" nome="Glória do Goitá" link="/brasil/pe/gloria-do-goita" faixa="faixa3">
    <polygon class="{{cor}}" points="7077,4076 7098,4084 7090,4105 7076,4119 7085,4132 7073,4144 7072,4172 7061,4169 7040,4183 6999,4166 6962,4186 6926,4192 6926,4192 6918,4156 6895,4149 6902,4112 6962,4125 7034,4072 7052,4068 " _ngcontent-c18=""/>
   </g>
  </g>
  <g id="_399987272" _ngcontent-c18="" vector-effect="non-scaling-stroke">
   <g _ngcontent-c18="" codigo="260620" nome="Goiana" link="/brasil/pe/goiana" faixa="faixa4">
    <polygon class="{{cor}}" points="7429,3853 7414,3875 7396,3876 7383,3849 7363,3856 7362,3856 7234,3793 7244,3786 7231,3768 7250,3754 7257,3722 7244,3726 7229,3703 7309,3658 7309,3691 7330,3724 7355,3715 7368,3727 7394,3722 7411,3732 7422,3725 7440,3733 7448,3775 7462,3792 7440,3848 " _ngcontent-c18=""/>
   </g>
  </g>
  <g id="_399986312" _ngcontent-c18="" vector-effect="non-scaling-stroke">
   <g _ngcontent-c18="" codigo="260630" nome="Granito" link="/brasil/pe/granito" faixa="faixa1">
    <polygon class="{{cor}}" points="3317,3867 3323,3907 3339,3920 3338,3928 3357,3942 3363,3961 3353,3977 3366,3995 3354,4010 3191,4046 3146,3855 3188,3834 3211,3837 3243,3851 3263,3842 3286,3863 " _ngcontent-c18=""/>
   </g>
  </g>
  <g id="_399986240" _ngcontent-c18="" vector-effect="non-scaling-stroke">
   <g _ngcontent-c18="" codigo="260640" nome="Gravatá" link="/brasil/pe/gravata" faixa="faixa4">
    <polygon class="{{cor}}" points="6898,4203 6883,4212 6918,4231 6909,4268 6872,4282 6880,4292 6854,4313 6857,4381 6841,4378 6841,4394 6816,4406 6824,4414 6823,4425 6755,4444 6768,4419 6737,4362 6732,4297 6730,4268 6753,4212 6793,4190 6856,4172 " _ngcontent-c18=""/>
   </g>
  </g>
  <g id="_399986288" _ngcontent-c18="" vector-effect="non-scaling-stroke">
   <g _ngcontent-c18="" codigo="260650" nome="Iati" link="/brasil/pe/iati" faixa="faixa2">
    <polygon class="{{cor}}" points="5689,4888 5756,4991 5743,5058 5758,5081 5771,5102 5682,5129 5673,5211 5676,5222 5647,5239 5635,5266 5637,5280 5625,5291 5627,5309 5618,5314 5599,5302 5593,5296 5590,5294 5569,5288 5551,5256 5525,5249 5551,5210 5560,5216 5576,5201 5595,5195 5613,5167 5619,5137 5609,5138 5592,5121 5585,5095 5624,5042 5637,5006 5650,4994 5669,4957 5669,4926 5688,4888 " _ngcontent-c18=""/>
   </g>
  </g>
  <g id="_399985808" _ngcontent-c18="" vector-effect="non-scaling-stroke">
   <g _ngcontent-c18="" codigo="260660" nome="Ibimirim" link="/brasil/pe/ibimirim" faixa="faixa3">
    <polygon class="{{cor}}" points="5255,4483 5236,4562 5217,4824 5166,4798 5148,4796 5134,4814 5093,4829 5071,4830 5062,4839 5009,4801 4986,4794 5002,4780 5005,4752 4983,4734 4922,4734 4886,4720 4863,4728 4836,4722 4830,4707 4812,4699 4837,4635 4893,4478 4976,4463 5056,4396 5050,4433 5039,4439 5038,4478 5072,4471 5092,4477 5119,4501 5158,4501 5176,4518 5210,4511 5212,4499 5242,4478 " _ngcontent-c18=""/>
   </g>
  </g>
  <g id="_399985712" _ngcontent-c18="" vector-effect="non-scaling-stroke">
   <g _ngcontent-c18="" codigo="260670" nome="Ibirajuba" link="/brasil/pe/ibirajuba" faixa="faixa1">
    <polygon class="{{cor}}" points="6353,4631 6301,4665 6278,4695 6273,4736 6266,4736 6220,4687 6203,4660 6182,4666 6198,4607 6204,4607 6236,4616 6289,4593 " _ngcontent-c18=""/>
   </g>
  </g>
  <g id="_399985424" _ngcontent-c18="" vector-effect="non-scaling-stroke">
   <g _ngcontent-c18="" codigo="260680" nome="Igarassu" link="/brasil/pe/igarassu" faixa="faixa4">
    <polygon class="{{cor}}" points="7392,3954 7428,3963 7434,3988 7434,4002 7412,4028 7363,4024 7356,4029 7316,4036 7250,4018 7265,4008 7269,3971 7279,3961 7262,3944 7263,3921 7250,3906 7218,3898 7211,3883 7212,3876 7257,3902 7297,3890 7311,3894 7329,3870 7350,3868 7362,3856 7363,3856 7347,3882 7345,3899 7360,3954 " _ngcontent-c18=""/>
   </g>
  </g>
  <g id="_399985064" _ngcontent-c18="" vector-effect="non-scaling-stroke">
   <g _ngcontent-c18="" codigo="260690" nome="Iguaracy" link="/brasil/pe/iguaracy" faixa="faixa1">
    <polygon class="{{cor}}" points="5425,3950 5414,3941 5362,3966 5376,3968 5381,3986 5359,3990 5362,4013 5333,4034 5300,4042 5306,4065 5297,4073 5270,4077 5259,4085 5225,4085 5205,4071 5180,4080 5168,4072 5164,4092 5114,4097 5106,4104 5088,4115 5065,4106 5074,4088 5094,4074 5097,4056 5083,4049 5082,4037 5068,4028 5069,4014 5041,4032 5040,4031 5052,4003 5050,3994 5075,3973 5073,3967 5111,3933 5122,3909 5108,3879 5123,3872 5122,3880 5156,3903 5159,3926 5170,3928 5181,3946 5203,3941 5234,3926 5266,3923 5281,3889 5293,3881 5327,3867 5356,3879 5364,3900 5411,3902 5421,3912 " _ngcontent-c18=""/>
   </g>
  </g>
  <g id="_399984536" _ngcontent-c18="" vector-effect="non-scaling-stroke">
   <g _ngcontent-c18="" codigo="260700" nome="Inajá" link="/brasil/pe/inaja" faixa="faixa2">
    <polygon class="{{cor}}" points="5093,4829 5024,4900 4970,4929 4952,4904 4941,4880 4933,4877 4921,4851 4896,4863 4885,4877 4860,4888 4865,4905 4854,4921 4860,4926 4844,4931 4824,4949 4812,4941 4768,4982 4743,4984 4729,5001 4716,4981 4705,4952 4705,4708 4689,4684 4716,4680 4732,4689 4751,4684 4752,4669 4769,4654 4837,4635 4812,4699 4830,4707 4836,4722 4863,4728 4886,4720 4922,4734 4983,4734 5005,4752 5002,4780 4986,4794 5009,4801 5062,4839 5071,4830 " _ngcontent-c18=""/>
   </g>
  </g>
  <g id="_399984968" _ngcontent-c18="" vector-effect="non-scaling-stroke">
   <g _ngcontent-c18="" codigo="260710" nome="Ingazeira" link="/brasil/pe/ingazeira" faixa="faixa1">
    <polygon class="{{cor}}" points="5247,3800 5273,3821 5270,3846 5293,3881 5281,3889 5266,3923 5234,3926 5203,3941 5181,3946 5170,3928 5159,3926 5156,3903 5122,3880 5123,3872 5141,3862 5145,3847 5162,3837 5199,3833 5213,3814 " _ngcontent-c18=""/>
   </g>
  </g>
  <g id="_399984008" _ngcontent-c18="" vector-effect="non-scaling-stroke">
   <g _ngcontent-c18="" codigo="260720" nome="Ipojuca" link="/brasil/pe/ipojuca" faixa="faixa4">
    <polygon class="{{cor}}" points="7335,4441 7338,4446 7300,4535 7292,4568 7290,4606 7269,4614 7258,4649 7240,4637 7237,4615 7227,4602 7230,4578 7188,4570 7173,4546 7152,4534 7122,4535 7091,4482 7130,4446 7130,4430 7149,4428 7164,4398 7176,4389 7203,4410 7224,4407 7239,4423 7256,4423 7275,4435 7303,4434 7308,4426 " _ngcontent-c18=""/>
   </g>
  </g>
  <g id="_399984272" _ngcontent-c18="" vector-effect="non-scaling-stroke">
   <g _ngcontent-c18="" codigo="260730" nome="Ipubi" link="/brasil/pe/ipubi" faixa="faixa3">
    <polygon class="{{cor}}" points="2850,3580 2896,3852 2846,3866 2803,3843 2780,3850 2751,3744 2688,3543 2718,3519 2759,3519 2773,3530 2796,3554 2817,3568 " _ngcontent-c18=""/>
   </g>
  </g>
  <g id="_399983840" _ngcontent-c18="" vector-effect="non-scaling-stroke">
   <g _ngcontent-c18="" codigo="260740" nome="Itacuruba" link="/brasil/pe/itacuruba" faixa="faixa1">
    <polygon class="{{cor}}" points="4168,4657 4173,4697 4157,4722 4148,4750 4138,4817 4143,4837 4139,4896 4112,4914 4108,4882 4101,4865 4073,4850 4014,4801 3973,4798 3974,4747 3983,4721 4168,4657 " _ngcontent-c18=""/>
   </g>
  </g>
  <g id="_399982976" _ngcontent-c18="" vector-effect="non-scaling-stroke">
   <g _ngcontent-c18="" codigo="260750" nome="Itaíba" link="/brasil/pe/itaiba" faixa="faixa3">
    <polygon class="{{cor}}" points="5485,4950 5487,4959 5472,4993 5438,5030 5432,5047 5434,5105 5412,5157 5401,5170 5370,5191 5375,5180 5359,5138 5332,5115 5299,5064 5290,5064 5263,5030 5231,5008 5213,4990 5168,4983 5148,4973 5142,4957 5125,4957 5119,4952 5125,4931 5141,4923 5150,4901 5149,4886 5161,4875 5157,4849 5185,4881 5194,4870 5207,4874 5217,4824 5257,4822 5273,4840 5291,4845 5298,4835 5322,4833 5352,4822 5369,4835 5383,4885 5401,4898 5404,4909 5426,4933 5452,4937 " _ngcontent-c18=""/>
   </g>
  </g>
  <g id="_399983624" _ngcontent-c18="" vector-effect="non-scaling-stroke">
   <g _ngcontent-c18="" codigo="260760" nome="Ilha de Itamaracá" link="/brasil/pe/ilha-de-itamaraca" faixa="faixa2">
    <polygon class="{{cor}}" points="7429,3853 7442,3863 7448,3912 7438,3937 7436,3959 7428,3963 7392,3954 7393,3925 7402,3898 7415,3889 7414,3875 " _ngcontent-c18=""/>
   </g>
  </g>
  <g id="_399983672" _ngcontent-c18="" vector-effect="non-scaling-stroke">
   <g _ngcontent-c18="" codigo="260765" nome="Itambé" link="/brasil/pe/itambe" faixa="faixa3">
    <polygon class="{{cor}}" points="7309,3658 7229,3703 7244,3726 7213,3728 7204,3718 7190,3726 7175,3699 7160,3693 7135,3670 7120,3668 7092,3640 7084,3625 7050,3609 7017,3622 7010,3618 7030,3612 7055,3594 7082,3583 7124,3594 7132,3603 7148,3594 7164,3598 7204,3609 7236,3604 7271,3627 7294,3651 " _ngcontent-c18=""/>
   </g>
  </g>
  <g id="_399982208" _ngcontent-c18="" vector-effect="non-scaling-stroke">
   <g _ngcontent-c18="" codigo="260770" nome="Itapetim" link="/brasil/pe/itapetim" faixa="faixa2">
    <polygon class="{{cor}}" points="5550,3689 5463,3673 5434,3687 5432,3660 5439,3651 5412,3650 5398,3615 5377,3616 5358,3602 5339,3599 5328,3578 5337,3542 5347,3525 5347,3496 5370,3496 5388,3511 5420,3527 5430,3550 5447,3549 5456,3559 5498,3569 5514,3590 5526,3587 5550,3593 5560,3608 5552,3634 5577,3660 5586,3675 5569,3688 5550,3688 " _ngcontent-c18=""/>
   </g>
  </g>
  <g id="_399982904" _ngcontent-c18="" vector-effect="non-scaling-stroke">
   <g _ngcontent-c18="" codigo="260775" nome="Itapissuma" link="/brasil/pe/itapissuma" faixa="faixa3">
    <polygon class="{{cor}}" points="7414,3875 7415,3889 7402,3898 7393,3925 7392,3954 7360,3954 7345,3899 7347,3882 7363,3856 7383,3849 7396,3876 " _ngcontent-c18=""/>
   </g>
  </g>
  <g id="_399981704" _ngcontent-c18="" vector-effect="non-scaling-stroke">
   <g _ngcontent-c18="" codigo="260780" nome="Itaquitinga" link="/brasil/pe/itaquitinga" faixa="faixa2">
    <polygon class="{{cor}}" points="7362,3856 7350,3868 7329,3870 7311,3894 7297,3890 7257,3902 7212,3876 7217,3857 7192,3838 7201,3822 7226,3808 7234,3793 " _ngcontent-c18=""/>
   </g>
  </g>
  <g id="_399981896" _ngcontent-c18="" vector-effect="non-scaling-stroke">
   <g _ngcontent-c18="" codigo="260790" nome="Jaboatão dos Guararapes" link="/brasil/pe/jaboatao-dos-guararapes" faixa="faixa4">
    <polygon class="{{cor}}" points="7282,4170 7300,4174 7323,4199 7323,4199 7326,4203 7326,4203 7337,4241 7371,4247 7375,4256 7367,4282 7369,4298 7359,4315 7352,4328 7333,4325 7329,4308 7329,4308 7317,4321 7303,4316 7303,4316 7303,4316 7303,4316 7303,4316 7303,4316 7290,4299 7241,4314 7238,4297 7238,4297 7213,4261 7246,4198 7249,4180 " _ngcontent-c18=""/>
   </g>
  </g>
  <g id="_399982112" _ngcontent-c18="" vector-effect="non-scaling-stroke">
   <g _ngcontent-c18="" codigo="260795" nome="Jaqueira" link="/brasil/pe/jaqueira" faixa="faixa1">
    <polygon class="{{cor}}" points="6629,4782 6589,4793 6586,4812 6566,4818 6559,4777 6554,4769 6567,4756 6568,4739 6589,4733 6595,4704 6593,4731 6611,4723 6625,4735 6648,4726 6654,4745 6634,4768 " _ngcontent-c18=""/>
   </g>
  </g>
  <g id="_399980696" _ngcontent-c18="" vector-effect="non-scaling-stroke">
   <g _ngcontent-c18="" codigo="260800" nome="Jataúba" link="/brasil/pe/jatauba" faixa="faixa2">
    <polygon class="{{cor}}" points="6050,4050 6052,4053 6107,4102 6052,4248 6009,4231 6011,4237 5962,4303 5933,4299 5912,4305 5907,4265 5900,4305 5877,4301 5863,4280 5849,4275 5842,4256 5836,4243 5861,4228 5892,4218 5868,4185 5892,4171 5893,4110 5909,4077 5937,4087 5941,4067 5941,4039 5972,4037 6020,4057 " _ngcontent-c18=""/>
   </g>
  </g>
  <g id="_399981152" _ngcontent-c18="" vector-effect="non-scaling-stroke">
   <g _ngcontent-c18="" codigo="260805" nome="Jatobá" link="/brasil/pe/jatoba" faixa="faixa2">
    <polygon class="{{cor}}" points="4631,5133 4600,5164 4586,5172 4575,5200 4575,5210 4555,5235 4535,5240 4505,5268 4494,5234 4462,5171 4469,5157 4461,5132 4440,5112 4533,5074 4539,5115 " _ngcontent-c18=""/>
   </g>
  </g>
  <g id="_399980960" _ngcontent-c18="" vector-effect="non-scaling-stroke">
   <g _ngcontent-c18="" codigo="260810" nome="João Alfredo" link="/brasil/pe/joao-alfredo" faixa="faixa3">
    <polygon class="{{cor}}" points="6864,3956 6856,4002 6844,4021 6848,4039 6838,4030 6820,4034 6807,4027 6791,4032 6766,4018 6709,4044 6697,4030 6706,4010 6704,3990 6707,3980 6782,3982 6805,3979 6850,3950 " _ngcontent-c18=""/>
   </g>
  </g>
  <g id="_399980168" _ngcontent-c18="" vector-effect="non-scaling-stroke">
   <g _ngcontent-c18="" codigo="260820" nome="Joaquim Nabuco" link="/brasil/pe/joaquim-nabuco" faixa="faixa2">
    <polygon class="{{cor}}" points="6865,4551 6876,4558 6847,4602 6845,4621 6855,4669 6833,4690 6828,4676 6804,4665 6790,4568 6803,4553 6829,4540 6852,4557 " _ngcontent-c18=""/>
   </g>
  </g>
  <g id="_399980120" _ngcontent-c18="" vector-effect="non-scaling-stroke">
   <g _ngcontent-c18="" codigo="260825" nome="Jucati" link="/brasil/pe/jucati" faixa="faixa1">
    <polygon class="{{cor}}" points="6089,4792 6065,4811 6051,4812 6014,4808 5990,4786 5997,4763 5991,4753 6005,4740 5996,4732 6014,4729 6031,4717 6035,4698 6048,4689 " _ngcontent-c18=""/>
   </g>
  </g>
  <g id="_399980264" _ngcontent-c18="" vector-effect="non-scaling-stroke">
   <g _ngcontent-c18="" codigo="260830" nome="Jupi" link="/brasil/pe/jupi" faixa="faixa2">
    <polygon class="{{cor}}" points="6105,4669 6116,4715 6114,4763 6151,4811 6140,4813 6131,4799 6124,4809 6089,4804 6089,4792 6048,4689 6105,4669 " _ngcontent-c18=""/>
   </g>
  </g>
  <g id="_399979736" _ngcontent-c18="" vector-effect="non-scaling-stroke">
   <g _ngcontent-c18="" codigo="260840" nome="Jurema" link="/brasil/pe/jurema" faixa="faixa2">
    <polygon class="{{cor}}" points="6369,4786 6356,4792 6330,4843 6307,4835 6306,4816 6283,4798 6248,4806 6273,4736 6278,4695 6327,4739 6369,4743 " _ngcontent-c18=""/>
   </g>
  </g>
  <g id="_399979160" _ngcontent-c18="" vector-effect="non-scaling-stroke">
   <g _ngcontent-c18="" codigo="260845" nome="Lagoa do Carro" link="/brasil/pe/lagoa-do-carro" faixa="faixa2">
    <polygon class="{{cor}}" points="7047,4014 7024,4025 7014,4019 7007,4030 6990,4028 6978,4001 6962,3993 6947,3971 6972,3965 6987,3974 7005,3968 7021,3975 7042,3967 7053,3984 " _ngcontent-c18=""/>
   </g>
  </g>
  <g id="_399979328" _ngcontent-c18="" vector-effect="non-scaling-stroke">
   <g _ngcontent-c18="" codigo="260850" nome="Lagoa de Itaenga" link="/brasil/pe/lagoa-de-itaenga" faixa="faixa2">
    <polygon class="{{cor}}" points="7088,4026 7078,4049 7077,4076 7052,4068 7034,4072 7017,4063 6990,4028 7007,4030 7014,4019 7024,4025 7047,4014 7065,4029 " _ngcontent-c18=""/>
   </g>
  </g>
  <g id="_399978896" _ngcontent-c18="" vector-effect="non-scaling-stroke">
   <g _ngcontent-c18="" codigo="260860" nome="Lagoa do Ouro" link="/brasil/pe/lagoa-do-ouro" faixa="faixa1">
    <polygon class="{{cor}}" points="6087,5177 6070,5181 6062,5167 6024,5194 6014,5191 6003,5210 5994,5201 5997,5186 5986,5177 5981,5143 6000,5126 5991,5122 5994,5103 5977,5073 6022,5058 6033,5051 6051,5044 6067,5062 6076,5059 " _ngcontent-c18=""/>
   </g>
  </g>
  <g id="_399978824" _ngcontent-c18="" vector-effect="non-scaling-stroke">
   <g _ngcontent-c18="" codigo="260870" nome="Lagoa dos Gatos" link="/brasil/pe/lagoa-dos-gatos" faixa="faixa2">
    <polygon class="{{cor}}" points="6598,4702 6595,4704 6589,4733 6568,4739 6567,4756 6554,4769 6504,4768 6463,4763 6452,4748 6458,4734 6458,4701 6479,4664 6522,4650 6561,4645 6576,4666 6585,4664 6601,4682 " _ngcontent-c18=""/>
   </g>
  </g>
  <g id="_399977720" _ngcontent-c18="" vector-effect="non-scaling-stroke">
   <g _ngcontent-c18="" codigo="260875" nome="Lagoa Grande" link="/brasil/pe/lagoa-grande" faixa="faixa3">
    <polygon class="{{cor}}" points="2817,4564 2843,4595 2843,4617 2872,4646 2899,4649 2911,4666 2922,4667 2927,4768 2902,4947 2912,4941 2954,4966 2945,4981 2960,4989 2965,5034 2982,5035 2929,5038 2919,5051 2874,5079 2845,5076 2838,5065 2806,5039 2785,5011 2786,4999 2762,4976 2742,4991 2730,4979 2733,4963 2723,4945 2730,4931 2750,4924 2750,4899 2718,4865 2685,4865 2673,4856 2672,4824 2657,4820 2643,4805 2649,4797 2640,4772 2647,4749 2647,4719 2616,4678 2601,4656 2613,4642 2626,4604 2646,4593 2659,4577 2662,4555 2683,4561 2692,4568 2726,4563 2729,4553 2750,4561 2765,4550 2777,4563 2802,4556 " _ngcontent-c18=""/>
   </g>
  </g>
  <g id="_399977768" _ngcontent-c18="" vector-effect="non-scaling-stroke">
   <g _ngcontent-c18="" codigo="260880" nome="Lajedo" link="/brasil/pe/lajedo" faixa="faixa3">
    <polygon class="{{cor}}" points="6198,4607 6182,4666 6203,4660 6220,4687 6266,4736 6246,4737 6219,4800 6105,4669 6105,4669 6148,4652 " _ngcontent-c18=""/>
   </g>
  </g>
  <g id="_399978320" _ngcontent-c18="" vector-effect="non-scaling-stroke">
   <g _ngcontent-c18="" codigo="260890" nome="Limoeiro" link="/brasil/pe/limoeiro" faixa="faixa4">
    <polygon class="{{cor}}" points="6935,3882 6941,3898 6919,3907 6947,3929 6947,3971 6962,3993 6978,4001 6990,4028 6982,4040 6966,4039 6939,4056 6915,4088 6865,4053 6853,4069 6848,4039 6844,4021 6856,4002 6864,3956 6885,3947 6878,3931 6881,3901 6902,3875 " _ngcontent-c18=""/>
   </g>
  </g>
  <g id="_399977336" _ngcontent-c18="" vector-effect="non-scaling-stroke">
   <g _ngcontent-c18="" codigo="260900" nome="Macaparana" link="/brasil/pe/macaparana" faixa="faixa3">
    <polygon class="{{cor}}" points="6922,3666 6938,3687 6947,3738 6926,3759 6940,3757 6927,3791 6908,3779 6907,3758 6895,3735 6874,3739 6874,3718 6864,3702 6870,3677 6886,3670 6908,3651 " _ngcontent-c18=""/>
   </g>
  </g>
  <g id="_399976832" _ngcontent-c18="" vector-effect="non-scaling-stroke">
   <g _ngcontent-c18="" codigo="260910" nome="Machados" link="/brasil/pe/machados" faixa="faixa2">
    <polygon class="{{cor}}" points="6912,3857 6879,3889 6851,3906 6830,3894 6824,3878 6847,3860 6840,3846 6854,3838 6853,3826 6887,3844 6896,3838 " _ngcontent-c18=""/>
   </g>
  </g>
  <g id="_399977120" _ngcontent-c18="" vector-effect="non-scaling-stroke">
   <g _ngcontent-c18="" codigo="260915" nome="Manari" link="/brasil/pe/manari" faixa="faixa2">
    <polygon class="{{cor}}" points="5217,4824 5207,4874 5194,4870 5185,4881 5157,4849 5161,4875 5149,4886 5150,4901 5141,4923 5125,4931 5119,4952 5102,4950 5093,4958 5059,4957 5046,4973 5022,4987 5005,4972 4984,4982 4969,4970 4993,4962 4970,4936 4970,4929 5024,4900 5093,4829 5134,4814 5148,4796 5166,4798 " _ngcontent-c18=""/>
   </g>
  </g>
  <g id="_399976088" _ngcontent-c18="" vector-effect="non-scaling-stroke">
   <g _ngcontent-c18="" codigo="260920" nome="Maraial" link="/brasil/pe/maraial" faixa="faixa1">
    <polygon class="{{cor}}" points="6675,4812 6716,4868 6673,4906 6651,4913 6621,4896 6627,4871 6611,4853 6600,4864 6587,4861 6584,4872 6570,4874 6569,4874 6566,4818 6586,4812 6589,4793 6629,4782 6657,4769 6672,4777 " _ngcontent-c18=""/>
   </g>
  </g>
  <g id="_399976520" _ngcontent-c18="" vector-effect="non-scaling-stroke">
   <g _ngcontent-c18="" codigo="260930" nome="Mirandiba" link="/brasil/pe/mirandiba" faixa="faixa2">
    <polygon class="{{cor}}" points="4194,4236 4202,4232 4248,4321 4248,4339 4231,4351 4236,4370 4218,4380 4168,4390 4150,4373 4089,4344 4073,4333 4010,4325 3994,4312 3977,4316 3952,4302 3963,4284 3960,4268 3929,4259 3902,4229 3907,4214 3925,4197 3949,4167 3953,4131 3994,4136 4039,4124 4073,4141 4097,4159 4114,4179 4117,4208 4133,4210 4143,4233 4163,4247 4169,4240 4186,4246 " _ngcontent-c18=""/>
   </g>
  </g>
  <g id="_399976304" _ngcontent-c18="" vector-effect="non-scaling-stroke">
   <g _ngcontent-c18="" codigo="260940" nome="Moreno" link="/brasil/pe/moreno" faixa="faixa4">
    <polygon class="{{cor}}" points="7246,4198 7213,4261 7238,4297 7238,4297 7241,4314 7229,4311 7193,4281 7169,4281 7155,4309 7157,4316 7111,4284 7100,4255 7128,4190 7178,4201 7185,4188 7209,4198 " _ngcontent-c18=""/>
   </g>
  </g>
  <g id="_443765976" _ngcontent-c18="" vector-effect="non-scaling-stroke">
   <g _ngcontent-c18="" codigo="260950" nome="Nazaré da Mata" link="/brasil/pe/nazare-da-mata" faixa="faixa3">
    <polygon class="{{cor}}" points="7162,3871 7150,3887 7143,3912 7130,3914 7082,3946 7079,3957 7034,3920 7073,3842 7089,3860 7114,3847 7137,3853 7154,3875 " _ngcontent-c18=""/>
   </g>
  </g>
  <g id="_443766096" _ngcontent-c18="" vector-effect="non-scaling-stroke">
   <g _ngcontent-c18="" codigo="260960" nome="Olinda" link="/brasil/pe/olinda" faixa="faixa4">
    <polygon class="{{cor}}" points="7445,4087 7433,4132 7417,4148 7417,4160 7404,4149 7406,4137 7368,4112 7371,4104 7404,4105 7425,4094 7421,4083 " _ngcontent-c18=""/>
   </g>
  </g>
  <g id="_443766360" _ngcontent-c18="" vector-effect="non-scaling-stroke">
   <g _ngcontent-c18="" codigo="260970" nome="Orobó" link="/brasil/pe/orobo" faixa="faixa3">
    <polygon class="{{cor}}" points="6853,3826 6854,3838 6840,3846 6847,3860 6824,3878 6792,3899 6767,3934 6745,3913 6722,3895 6710,3866 6730,3861 6752,3847 6762,3831 6790,3820 6822,3830 6842,3816 " _ngcontent-c18=""/>
   </g>
  </g>
  <g id="_443765088" _ngcontent-c18="" vector-effect="non-scaling-stroke">
   <g _ngcontent-c18="" codigo="260980" nome="Orocó" link="/brasil/pe/oroco" faixa="faixa1">
    <polygon class="{{cor}}" points="3438,4633 3404,4641 3394,4650 3322,4688 3291,4691 3293,4569 3305,4559 3288,4551 3276,4520 3268,4515 3267,4475 3270,4454 3258,4441 3262,4421 3357,4337 3382,4412 3368,4436 3369,4467 3362,4470 3364,4498 3374,4521 3405,4565 3437,4582 " _ngcontent-c18=""/>
   </g>
  </g>
  <g id="_443765016" _ngcontent-c18="" vector-effect="non-scaling-stroke">
   <g _ngcontent-c18="" codigo="260990" nome="Ouricuri" link="/brasil/pe/ouricuri" faixa="faixa4">
    <polygon class="{{cor}}" points="2896,3852 2909,3931 2915,3944 2939,3954 2977,3943 3041,3971 3048,3995 3035,4030 3044,4048 3063,4071 3069,4102 3088,4114 3094,4130 3112,4146 3037,4241 3036,4261 3043,4279 3068,4309 3023,4316 3009,4310 2981,4285 2981,4269 2960,4265 2941,4270 2926,4266 2919,4253 2875,4254 2854,4260 2833,4276 2823,4252 2818,4291 2788,4291 2784,4265 2764,4244 2788,4216 2795,4187 2776,4188 2762,4170 2736,4180 2711,4172 2688,4183 2681,4197 2657,4186 2630,4194 2617,4182 2619,4153 2612,4149 2490,4148 2486,4157 2490,4148 2490,4148 2503,4119 2532,4119 2538,4080 2550,4073 2559,4051 2572,4047 2592,4029 2592,4020 2688,3991 2782,3965 2780,3850 2803,3843 2846,3866 " _ngcontent-c18=""/>
   </g>
  </g>
  <g id="_443765712" _ngcontent-c18="" vector-effect="non-scaling-stroke">
   <g _ngcontent-c18="" codigo="261000" nome="Palmares" link="/brasil/pe/palmares" faixa="faixa4">
    <polygon class="{{cor}}" points="6833,4690 6810,4711 6816,4740 6777,4762 6774,4791 6675,4812 6725,4759 6743,4751 6686,4751 6720,4699 6697,4667 6719,4637 6699,4637 6693,4613 6695,4594 6744,4583 6751,4597 6767,4578 6790,4568 6804,4665 6828,4676 " _ngcontent-c18=""/>
   </g>
  </g>
  <g id="_443764368" _ngcontent-c18="" vector-effect="non-scaling-stroke">
   <g _ngcontent-c18="" codigo="261010" nome="Palmeirina" link="/brasil/pe/palmeirina" faixa="faixa1">
    <polygon class="{{cor}}" points="6338,4999 6330,5008 6304,5021 6266,5023 6216,5035 6180,5027 6140,5030 6125,5025 6118,5000 6109,4975 6116,4977 6153,4963 6171,4944 6214,4943 6233,4926 6227,4942 6224,4984 6246,4988 6246,5004 6277,5002 6301,5012 " _ngcontent-c18=""/>
   </g>
  </g>
  <g id="_443764632" _ngcontent-c18="" vector-effect="non-scaling-stroke">
   <g _ngcontent-c18="" codigo="261020" nome="Panelas" link="/brasil/pe/panelas" faixa="faixa3">
    <polygon class="{{cor}}" points="6437,4593 6460,4652 6479,4664 6458,4701 6458,4734 6452,4748 6463,4763 6464,4769 6460,4784 6446,4795 6411,4791 6386,4773 6369,4786 6369,4743 6327,4739 6278,4695 6301,4665 6353,4631 6366,4623 6422,4601 6434,4582 " _ngcontent-c18=""/>
   </g>
  </g>
  <g id="_443764944" _ngcontent-c18="" vector-effect="non-scaling-stroke">
   <g _ngcontent-c18="" codigo="261030" nome="Paranatama" link="/brasil/pe/paranatama" faixa="faixa1">
    <polygon class="{{cor}}" points="5907,4903 5911,4934 5891,4946 5874,4927 5823,4933 5819,4942 5799,4940 5689,4888 5688,4888 5686,4887 5702,4882 5721,4892 5764,4921 5788,4891 5782,4879 5765,4886 5773,4848 5780,4841 5859,4840 5860,4870 5877,4871 " _ngcontent-c18=""/>
   </g>
  </g>
  <g id="_443763624" _ngcontent-c18="" vector-effect="non-scaling-stroke">
   <g _ngcontent-c18="" codigo="261040" nome="Parnamirim" link="/brasil/pe/parnamirim" faixa="faixa2">
    <polygon class="{{cor}}" points="3471,4173 3478,4195 3476,4231 3435,4256 3398,4268 3521,4346 3495,4330 3463,4334 3445,4326 3417,4335 3383,4327 3357,4337 3262,4421 3258,4441 3270,4454 3267,4475 3268,4515 3224,4451 3206,4442 3204,4422 3187,4427 3169,4409 3129,4406 3074,4444 3038,4436 3017,4447 2976,4429 2967,4444 2949,4436 2915,4442 2904,4423 2892,4422 2911,4413 2813,4342 2818,4291 2823,4252 2833,4276 2854,4260 2875,4254 2919,4253 2926,4266 2941,4270 2960,4265 2981,4269 2981,4285 3009,4310 3023,4316 3068,4309 3043,4279 3036,4261 3037,4241 3112,4146 3191,4046 3354,4010 3355,4032 3365,4039 3366,4057 3350,4067 3359,4078 3358,4112 3457,4080 3447,4102 3428,4127 3431,4155 3445,4170 " _ngcontent-c18=""/>
   </g>
  </g>
  <g id="_443764032" _ngcontent-c18="" vector-effect="non-scaling-stroke">
   <g _ngcontent-c18="" codigo="261050" nome="Passira" link="/brasil/pe/passira" faixa="faixa3">
    <polygon class="{{cor}}" points="6915,4088 6902,4112 6895,4149 6918,4156 6926,4192 6915,4191 6898,4203 6856,4172 6793,4190 6753,4212 6736,4213 6735,4185 6724,4162 6745,4158 6746,4150 6771,4133 6733,4074 6762,4074 6778,4066 6797,4076 6818,4071 6832,4075 6838,4062 6853,4069 6865,4053 " _ngcontent-c18=""/>
   </g>
  </g>
  <g id="_443763960" _ngcontent-c18="" vector-effect="non-scaling-stroke">
   <g _ngcontent-c18="" codigo="261060" nome="Paudalho" link="/brasil/pe/paudalho" faixa="faixa4">
    <polygon class="{{cor}}" points="7269,4059 7271,4064 7267,4071 7231,4080 7211,4099 7155,4098 7153,4103 7098,4084 7077,4076 7078,4049 7088,4026 7111,4027 7102,3968 7171,3972 7176,3945 7191,3994 7212,4022 7258,4046 " _ngcontent-c18=""/>
   </g>
  </g>
  <g id="_443762760" _ngcontent-c18="" vector-effect="non-scaling-stroke">
   <g _ngcontent-c18="" codigo="261070" nome="Paulista" link="/brasil/pe/paulista" faixa="faixa4">
    <polygon class="{{cor}}" points="7445,4087 7421,4083 7425,4094 7404,4105 7371,4104 7375,4074 7369,4066 7343,4062 7343,4062 7324,4072 7307,4071 7296,4061 7271,4064 7269,4059 7281,4049 7309,4053 7329,4049 7377,4067 7388,4047 7416,4044 7412,4028 7434,4002 7434,3988 7448,4024 7452,4056 " _ngcontent-c18=""/>
   </g>
  </g>
  <g id="_443763336" _ngcontent-c18="" vector-effect="non-scaling-stroke">
   <g _ngcontent-c18="" codigo="261080" nome="Pedra" link="/brasil/pe/pedra" faixa="faixa2">
    <polygon class="{{cor}}" points="5726,4482 5726,4486 5703,4523 5694,4563 5680,4589 5655,4611 5659,4618 5648,4650 5709,4694 5730,4716 5757,4731 5768,4753 5767,4779 5780,4790 5763,4813 5780,4841 5773,4848 5765,4886 5782,4879 5788,4891 5764,4921 5721,4892 5702,4882 5686,4887 5662,4895 5657,4906 5623,4896 5578,4895 5597,4735 5582,4602 5570,4588 5532,4589 5510,4582 5552,4552 5566,4531 5566,4507 5580,4498 5587,4510 5599,4505 5628,4508 5637,4522 5658,4501 5674,4498 5676,4515 5694,4512 " _ngcontent-c18=""/>
   </g>
  </g>
  <g id="_443762976" _ngcontent-c18="" vector-effect="non-scaling-stroke">
   <g _ngcontent-c18="" codigo="261090" nome="Pesqueira" link="/brasil/pe/pesqueira" faixa="faixa4">
    <polygon class="{{cor}}" points="5755,4286 5729,4330 5742,4360 5758,4360 5768,4346 5808,4344 5815,4355 5854,4359 5887,4368 5883,4361 5912,4305 5951,4366 5915,4391 5893,4420 5932,4522 5953,4558 5908,4595 5905,4603 5864,4634 5842,4668 5853,4689 5839,4700 5809,4681 5806,4645 5780,4638 5809,4604 5820,4582 5851,4575 5829,4485 5758,4486 5732,4493 5726,4482 5694,4512 5676,4515 5674,4498 5658,4501 5636,4490 5617,4464 5620,4444 5650,4377 5651,4340 5691,4314 5734,4299 " _ngcontent-c18=""/>
   </g>
  </g>
  <g id="_443762424" _ngcontent-c18="" vector-effect="non-scaling-stroke">
   <g _ngcontent-c18="" codigo="261100" nome="Petrolândia" link="/brasil/pe/petrolandia" faixa="faixa3">
    <polygon class="{{cor}}" points="4654,4712 4507,4859 4525,4887 4524,4901 4533,4941 4527,4966 4533,5074 4440,5112 4433,5085 4448,5067 4434,5063 4433,5044 4460,5025 4449,4996 4431,4975 4398,4985 4362,5016 4323,5007 4276,4968 4267,4949 4268,4922 4297,4899 4305,4868 4316,4847 4330,4837 4361,4826 4387,4803 4429,4789 4447,4772 4461,4777 4481,4770 4486,4732 4509,4715 4530,4715 4546,4705 4588,4723 4616,4722 4647,4708 " _ngcontent-c18=""/>
   </g>
  </g>
  <g id="_443762016" _ngcontent-c18="" vector-effect="non-scaling-stroke">
   <g _ngcontent-c18="" codigo="261110" nome="Petrolina" link="/brasil/pe/petrolina" faixa="faixa4">
    <polygon class="{{cor}}" points="2616,4678 2647,4719 2647,4749 2640,4772 2649,4797 2643,4805 2657,4820 2672,4824 2673,4856 2685,4865 2718,4865 2750,4899 2750,4924 2730,4931 2723,4945 2733,4963 2730,4979 2742,4991 2762,4976 2786,4999 2785,5011 2806,5039 2780,5031 2750,5055 2739,5085 2732,5115 2739,5144 2727,5183 2719,5221 2711,5232 2695,5273 2698,5286 2681,5307 2649,5305 2625,5287 2607,5301 2593,5334 2583,5346 2546,5335 2520,5350 2516,5365 2499,5384 2469,5389 2451,5400 2399,5387 2369,5371 2325,5368 2326,5340 2345,5331 2342,5304 2350,5274 2334,5256 2348,5240 2365,5248 2375,5231 2393,5224 2399,5206 2387,5185 2408,5144 2411,5121 2395,5103 2374,5105 2354,5091 2333,5086 2334,5074 2293,5069 2278,5053 2275,5017 2267,4993 2251,4967 2252,4943 2243,4939 2239,4918 2226,4911 2214,4888 2213,4873 2192,4842 2159,4848 2172,4833 2172,4801 2177,4792 2200,4791 2332,4659 2487,4697 " _ngcontent-c18=""/>
   </g>
  </g>
  <g id="_443762544" _ngcontent-c18="" vector-effect="non-scaling-stroke">
   <g _ngcontent-c18="" codigo="261120" nome="Poção" link="/brasil/pe/pocao" faixa="faixa1">
    <polygon class="{{cor}}" points="5842,4256 5849,4275 5863,4280 5877,4301 5900,4305 5907,4265 5912,4305 5883,4361 5887,4368 5854,4359 5815,4355 5808,4344 5768,4346 5758,4360 5742,4360 5729,4330 5755,4286 5778,4291 5788,4273 5817,4266 5811,4252 " _ngcontent-c18=""/>
   </g>
  </g>
  <g id="_443761440" _ngcontent-c18="" vector-effect="non-scaling-stroke">
   <g _ngcontent-c18="" codigo="261130" nome="Pombos" link="/brasil/pe/pombos" faixa="faixa3">
    <polygon class="{{cor}}" points="6926,4192 6926,4192 7000,4223 7022,4277 7005,4362 6981,4380 6962,4347 6949,4343 6939,4353 6918,4340 6914,4330 6927,4308 6921,4281 6926,4264 6909,4268 6918,4231 6883,4212 6898,4203 6915,4191 " _ngcontent-c18=""/>
   </g>
  </g>
  <g id="_443761272" _ngcontent-c18="" vector-effect="non-scaling-stroke">
   <g _ngcontent-c18="" codigo="261140" nome="Primavera" link="/brasil/pe/primavera" faixa="faixa1">
    <polygon class="{{cor}}" points="6918,4340 6939,4353 6949,4343 6962,4347 6981,4380 6987,4381 6998,4431 7010,4434 6989,4449 6982,4463 7001,4476 6998,4491 6982,4474 6975,4488 6962,4482 6947,4491 6974,4450 6938,4406 6894,4347 " _ngcontent-c18=""/>
   </g>
  </g>
  <g id="_443761560" _ngcontent-c18="" vector-effect="non-scaling-stroke">
   <g _ngcontent-c18="" codigo="261150" nome="Quipapá" link="/brasil/pe/quipapa" faixa="faixa3">
    <polygon class="{{cor}}" points="6477,4891 6444,4901 6430,4909 6406,4905 6382,4893 6326,4848 6330,4843 6356,4792 6369,4786 6386,4773 6411,4791 6446,4795 6460,4784 6464,4769 6473,4823 " _ngcontent-c18=""/>
   </g>
  </g>
  <g id="_443761104" _ngcontent-c18="" vector-effect="non-scaling-stroke">
   <g _ngcontent-c18="" codigo="261153" nome="Quixaba" link="/brasil/pe/quixaba" faixa="faixa1">
    <polygon class="{{cor}}" points="4911,3826 4909,3842 4919,3854 4898,3849 4884,3910 4842,3952 4794,3927 4747,3920 4759,3899 4785,3871 4801,3875 4793,3862 4813,3849 4833,3822 4875,3814 4882,3799 4895,3799 " _ngcontent-c18=""/>
   </g>
  </g>
  <g id="_443760672" _ngcontent-c18="" vector-effect="non-scaling-stroke">
   <g _ngcontent-c18="" codigo="261160" nome="Recife" link="/brasil/pe/recife" faixa="faixa4">
    <polygon class="{{cor}}" points="7371,4104 7368,4112 7406,4137 7404,4149 7417,4160 7375,4256 7371,4247 7337,4241 7326,4203 7326,4203 7323,4199 7323,4199 7300,4174 7282,4170 7301,4162 7300,4154 7326,4139 7329,4099 7293,4087 7296,4061 7307,4071 7324,4072 7343,4062 7343,4062 7369,4066 7375,4074 " _ngcontent-c18=""/>
   </g>
  </g>
  <g id="_443760456" _ngcontent-c18="" vector-effect="non-scaling-stroke">
   <g _ngcontent-c18="" codigo="261170" nome="Riacho das Almas" link="/brasil/pe/riacho-das-almas" faixa="faixa2">
    <polygon class="{{cor}}" points="6643,4100 6642,4131 6618,4135 6607,4157 6572,4183 6576,4221 6564,4258 6531,4270 6538,4300 6506,4283 6501,4297 6455,4266 6447,4246 6507,4126 6532,4126 6539,4113 6565,4116 6570,4108 6601,4104 6602,4099 6628,4096 " _ngcontent-c18=""/>
   </g>
  </g>
  <g id="_443759712" _ngcontent-c18="" vector-effect="non-scaling-stroke">
   <g _ngcontent-c18="" codigo="261180" nome="Ribeirão" link="/brasil/pe/ribeirao" faixa="faixa4">
    <polygon class="{{cor}}" points="6998,4491 7001,4505 7027,4484 7014,4509 7025,4537 7036,4544 7047,4522 7061,4542 7065,4579 7055,4605 7066,4637 7068,4666 7068,4666 7039,4639 7009,4619 6989,4589 6960,4600 6927,4587 6926,4561 6898,4564 6891,4593 6874,4568 6876,4558 6865,4551 6865,4534 6904,4521 6912,4511 6930,4490 6947,4491 6962,4482 6975,4488 6982,4474 " _ngcontent-c18=""/>
   </g>
  </g>
  <g id="_443759856" _ngcontent-c18="" vector-effect="non-scaling-stroke">
   <g _ngcontent-c18="" codigo="261190" nome="Rio Formoso" link="/brasil/pe/rio-formoso" faixa="faixa3">
    <polygon class="{{cor}}" points="7208,4714 7213,4749 7182,4761 7175,4756 7069,4713 7002,4747 7003,4739 6988,4716 7001,4684 7032,4663 7068,4666 7068,4666 7083,4685 7113,4682 7123,4674 7138,4642 7139,4627 7175,4678 7188,4680 7199,4707 " _ngcontent-c18=""/>
   </g>
  </g>
  <g id="_443759064" _ngcontent-c18="" vector-effect="non-scaling-stroke">
   <g _ngcontent-c18="" codigo="261200" nome="Sairé" link="/brasil/pe/saire" faixa="faixa1">
    <polygon class="{{cor}}" points="6755,4444 6732,4447 6693,4443 6673,4455 6659,4417 6667,4393 6643,4372 6677,4332 6682,4315 6732,4297 6737,4362 6768,4419 " _ngcontent-c18=""/>
   </g>
  </g>
  <g id="_443759400" _ngcontent-c18="" vector-effect="non-scaling-stroke">
   <g _ngcontent-c18="" codigo="261210" nome="Salgadinho" link="/brasil/pe/salgadinho" faixa="faixa1">
    <polygon class="{{cor}}" points="6848,4039 6853,4069 6838,4062 6832,4075 6818,4071 6797,4076 6778,4066 6762,4074 6733,4074 6735,4064 6709,4044 6766,4018 6791,4032 6807,4027 6820,4034 6838,4030 " _ngcontent-c18=""/>
   </g>
  </g>
  <g id="_443759016" _ngcontent-c18="" vector-effect="non-scaling-stroke">
   <g _ngcontent-c18="" codigo="261220" nome="Salgueiro" link="/brasil/pe/salgueiro" faixa="faixa4">
    <polygon class="{{cor}}" points="3833,3960 3835,3971 3801,4010 3795,4034 3782,4039 3778,4057 3787,4062 3784,4092 3764,4122 3769,4132 3759,4147 3784,4191 3792,4174 3825,4172 3839,4186 3852,4176 3873,4188 3878,4200 3895,4196 3913,4203 3925,4197 3907,4214 3902,4229 3929,4259 3960,4268 3963,4284 3952,4302 3977,4316 3994,4312 4010,4325 3977,4369 3940,4392 3925,4407 3910,4429 3879,4425 3853,4428 3851,4444 3838,4449 3822,4444 3808,4449 3668,4318 3633,4306 3588,4318 3575,4279 3592,4253 3591,4237 3575,4217 3583,4166 3599,4164 3643,4144 3645,4109 3655,4092 3648,4064 3658,4037 3722,3973 3725,3949 3748,3929 3760,3924 3770,3958 3768,3999 3792,3984 3802,3966 3823,3971 " _ngcontent-c18=""/>
   </g>
  </g>
  <g id="_443758752" _ngcontent-c18="" vector-effect="non-scaling-stroke">
   <g _ngcontent-c18="" codigo="261230" nome="Saloá" link="/brasil/pe/saloa" faixa="faixa2">
    <polygon class="{{cor}}" points="5891,4946 5886,4972 5895,4986 5885,5002 5841,5001 5827,5002 5796,5038 5787,5060 5771,5064 5758,5081 5743,5058 5756,4991 5689,4888 5799,4940 5819,4942 5823,4933 5874,4927 " _ngcontent-c18=""/>
   </g>
  </g>
  <g id="_443758344" _ngcontent-c18="" vector-effect="non-scaling-stroke">
   <g _ngcontent-c18="" codigo="261240" nome="Sanharó" link="/brasil/pe/sanharo" faixa="faixa3">
    <polygon class="{{cor}}" points="5994,4468 5996,4513 5953,4558 5932,4522 5893,4420 5915,4391 5951,4366 5951,4358 5989,4322 6008,4322 6015,4340 6005,4351 6005,4370 5982,4387 5994,4399 6017,4393 6009,4453 " _ngcontent-c18=""/>
   </g>
  </g>
  <g id="_443758104" _ngcontent-c18="" vector-effect="non-scaling-stroke">
   <g _ngcontent-c18="" codigo="261245" nome="Santa Cruz" link="/brasil/pe/santa-cruz" faixa="faixa1">
    <polygon class="{{cor}}" points="2818,4291 2813,4342 2911,4413 2892,4422 2870,4433 2865,4453 2838,4486 2830,4485 2816,4519 2821,4543 2817,4564 2802,4556 2777,4563 2765,4550 2750,4561 2729,4553 2726,4563 2692,4568 2683,4561 2677,4549 2681,4525 2675,4505 2653,4477 2622,4470 2611,4458 2614,4433 2600,4417 2599,4395 2589,4388 2602,4359 2617,4182 2630,4194 2657,4186 2681,4197 2688,4183 2711,4172 2736,4180 2762,4170 2776,4188 2795,4187 2788,4216 2764,4244 2784,4265 2788,4291 " _ngcontent-c18=""/>
   </g>
  </g>
  <g id="_443757432" _ngcontent-c18="" vector-effect="non-scaling-stroke">
   <g _ngcontent-c18="" codigo="261247" nome="Santa Cruz da Baixa Verde" link="/brasil/pe/santa-cruz-da-baixa-verde" faixa="faixa1">
    <polygon class="{{cor}}" points="4607,3966 4583,3988 4581,4002 4589,4021 4607,4043 4569,4040 4505,4041 4518,4023 4516,4004 4532,3982 4519,3967 4569,3932 4586,3935 4597,3946 " _ngcontent-c18=""/>
   </g>
  </g>
  <g id="_443757888" _ngcontent-c18="" vector-effect="non-scaling-stroke">
   <g _ngcontent-c18="" codigo="261250" nome="Santa Cruz do Capibaribe" link="/brasil/pe/santa-cruz-do-capibaribe" faixa="faixa4">
    <polygon class="{{cor}}" points="6207,3977 6205,4008 6225,4029 6288,4070 6292,4092 6281,4095 6239,4083 6208,4082 6183,4073 6151,4094 6114,4080 6107,4067 6089,4069 6070,4055 6052,4053 6050,4050 6064,4024 6055,4015 6064,4007 6064,3973 6069,3963 6093,3957 6164,3955 " _ngcontent-c18=""/>
   </g>
  </g>
  <g id="_443757768" _ngcontent-c18="" vector-effect="non-scaling-stroke">
   <g _ngcontent-c18="" codigo="261255" nome="Santa Filomena" link="/brasil/pe/santa-filomena" faixa="faixa1">
    <polygon class="{{cor}}" points="2617,4182 2602,4359 2589,4388 2599,4395 2600,4417 2614,4433 2611,4458 2596,4435 2575,4434 2559,4441 2528,4439 2518,4448 2492,4435 2449,4439 2429,4450 2418,4442 2401,4445 2394,4431 2380,4421 2368,4425 2346,4412 2335,4417 2327,4383 2313,4377 2313,4340 2327,4332 2344,4329 2351,4319 2373,4316 2382,4297 2410,4273 2411,4261 2430,4258 2439,4242 2468,4251 2478,4241 2465,4211 2470,4192 2486,4157 2490,4148 2612,4149 2619,4153 " _ngcontent-c18=""/>
   </g>
  </g>
  <g id="_443756640" _ngcontent-c18="" vector-effect="non-scaling-stroke">
   <g _ngcontent-c18="" codigo="261260" nome="Santa Maria da Boa Vista" link="/brasil/pe/santa-maria-da-boa-vista" faixa="faixa4">
    <polygon class="{{cor}}" points="3268,4515 3276,4520 3288,4551 3305,4559 3293,4569 3291,4691 3254,4692 3251,4709 3267,4764 3268,4799 3249,4811 3203,4806 3168,4828 3141,4823 3104,4828 3078,4836 3071,4867 3090,4899 3094,4929 3082,4954 3066,4968 3022,5026 3005,5031 2982,5035 2965,5034 2960,4989 2945,4981 2954,4966 2912,4941 2902,4947 2927,4768 2922,4667 2911,4666 2899,4649 2872,4646 2843,4617 2843,4595 2817,4564 2821,4543 2816,4519 2830,4485 2838,4486 2865,4453 2870,4433 2892,4422 2904,4423 2915,4442 2949,4436 2967,4444 2976,4429 3017,4447 3038,4436 3074,4444 3129,4406 3169,4409 3187,4427 3204,4422 3206,4442 3224,4451 " _ngcontent-c18=""/>
   </g>
  </g>
  <g id="_443757048" _ngcontent-c18="" vector-effect="non-scaling-stroke">
   <g _ngcontent-c18="" codigo="261270" nome="Santa Maria do Cambucá" link="/brasil/pe/santa-maria-do-cambuca" faixa="faixa1">
    <polygon class="{{cor}}" points="6567,3957 6588,4001 6543,4004 6511,4018 6502,4007 6508,3989 6483,3941 6496,3937 6522,3940 6537,3920 6561,3937 " _ngcontent-c18=""/>
   </g>
  </g>
  <g id="_443757264" _ngcontent-c18="" vector-effect="non-scaling-stroke">
   <g _ngcontent-c18="" codigo="261280" nome="Santa Terezinha" link="/brasil/pe/santa-terezinha" faixa="faixa1">
    <polygon class="{{cor}}" points="5255,3587 5258,3613 5248,3668 5206,3695 5184,3721 5184,3703 5149,3655 5122,3639 5152,3595 5145,3574 5200,3567 5218,3587 5243,3581 " _ngcontent-c18=""/>
   </g>
  </g>
  <g id="_443755872" _ngcontent-c18="" vector-effect="non-scaling-stroke">
   <g _ngcontent-c18="" codigo="261290" nome="São Benedito do Sul" link="/brasil/pe/sao-benedito-do-sul" faixa="faixa2">
    <polygon class="{{cor}}" points="6554,4769 6559,4777 6566,4818 6569,4874 6570,4874 6569,4874 6554,4862 6511,4864 6500,4884 6477,4891 6473,4823 6464,4769 6463,4763 6504,4768 " _ngcontent-c18=""/>
   </g>
  </g>
  <g id="_443756232" _ngcontent-c18="" vector-effect="non-scaling-stroke">
   <g _ngcontent-c18="" codigo="261300" nome="São Bento do Una" link="/brasil/pe/sao-bento-do-una" faixa="faixa4">
    <polygon class="{{cor}}" points="6123,4457 6128,4489 6158,4543 6170,4580 6152,4614 6148,4652 6105,4669 6048,4689 6035,4698 6031,4717 6014,4729 6001,4708 5974,4690 5967,4659 5951,4676 5945,4656 5928,4640 5909,4644 5914,4634 5903,4614 5905,4603 5908,4595 5953,4558 5996,4513 5994,4468 6002,4475 6028,4468 6043,4456 6058,4466 6087,4445 6095,4458 " _ngcontent-c18=""/>
   </g>
  </g>
  <g id="_443756520" _ngcontent-c18="" vector-effect="non-scaling-stroke">
   <g _ngcontent-c18="" codigo="261310" nome="São Caitano" link="/brasil/pe/sao-caitano" faixa="faixa3">
    <polygon class="{{cor}}" points="6380,4453 6373,4467 6368,4449 6350,4452 6332,4468 6321,4468 6319,4491 6247,4543 6241,4513 6248,4482 6234,4468 6254,4425 6246,4408 6239,4366 6275,4343 6268,4325 6294,4309 6306,4293 6329,4283 6363,4319 6370,4330 6381,4434 " _ngcontent-c18=""/>
   </g>
  </g>
  <g id="_443755104" _ngcontent-c18="" vector-effect="non-scaling-stroke">
   <g _ngcontent-c18="" codigo="261320" nome="São João" link="/brasil/pe/sao-joao" faixa="faixa2">
    <polygon class="{{cor}}" points="6140,4813 6163,4849 6156,4871 6171,4944 6153,4963 6116,4977 6109,4975 6089,4946 6091,4933 6076,4903 6063,4900 6048,4882 6036,4850 6051,4812 6065,4811 6089,4792 6089,4804 6124,4809 6131,4799 " _ngcontent-c18=""/>
   </g>
  </g>
  <g id="_443755584" _ngcontent-c18="" vector-effect="non-scaling-stroke">
   <g _ngcontent-c18="" codigo="261330" nome="São Joaquim do Monte" link="/brasil/pe/sao-joaquim-do-monte" faixa="faixa2">
    <polygon class="{{cor}}" points="6646,4453 6643,4476 6657,4498 6638,4501 6638,4511 6600,4525 6588,4519 6575,4534 6592,4554 6585,4574 6559,4586 6573,4621 6564,4633 6544,4632 6535,4619 6538,4594 6520,4565 6531,4551 6531,4525 6517,4521 6522,4491 6506,4488 6501,4473 6518,4453 6556,4445 6568,4448 6567,4459 6630,4444 " _ngcontent-c18=""/>
   </g>
  </g>
  <g id="_443755128" _ngcontent-c18="" vector-effect="non-scaling-stroke">
   <g _ngcontent-c18="" codigo="261340" nome="São José da Coroa Grande" link="/brasil/pe/sao-jose-da-coroa-grande" faixa="faixa2">
    <polygon class="{{cor}}" points="7184,4866 7165,4910 7149,4890 7116,4891 7094,4883 7069,4859 7178,4837 " _ngcontent-c18=""/>
   </g>
  </g>
  <g id="_443754408" _ngcontent-c18="" vector-effect="non-scaling-stroke">
   <g _ngcontent-c18="" codigo="261350" nome="São José do Belmonte" link="/brasil/pe/sao-jose-do-belmonte" faixa="faixa3">
    <polygon class="{{cor}}" points="4198,3910 4173,3938 4169,3968 4231,4040 4229,4070 4186,4154 4175,4207 4194,4236 4186,4246 4169,4240 4163,4247 4143,4233 4133,4210 4117,4208 4114,4179 4097,4159 4073,4141 4039,4124 3994,4136 3953,4131 3942,4091 3928,4084 3924,4060 3908,4050 3892,4029 3881,3987 3878,3975 3900,3942 3894,3933 3900,3914 3921,3912 3921,3902 3939,3907 3950,3904 3952,3883 3960,3873 3996,3880 4008,3861 4000,3845 4004,3833 4030,3838 4054,3825 4070,3829 4079,3806 4091,3800 4094,3796 4118,3807 4133,3829 4171,3859 4186,3897 " _ngcontent-c18=""/>
   </g>
  </g>
  <g id="_443754432" _ngcontent-c18="" vector-effect="non-scaling-stroke">
   <g _ngcontent-c18="" codigo="261360" nome="São José do Egito" link="/brasil/pe/sao-jose-do-egito" faixa="faixa3">
    <polygon class="{{cor}}" points="5339,3599 5358,3602 5377,3616 5398,3615 5412,3650 5439,3651 5432,3660 5434,3687 5463,3673 5550,3689 5526,3695 5512,3706 5498,3706 5470,3720 5431,3755 5402,3807 5404,3822 5433,3861 5443,3877 5423,3867 5407,3874 5378,3854 5366,3852 5302,3773 5271,3781 5247,3800 5213,3814 5195,3774 5201,3768 5199,3730 5184,3721 5206,3695 5248,3668 5258,3613 5255,3587 5264,3585 5269,3565 5274,3578 5302,3576 5322,3600 " _ngcontent-c18=""/>
   </g>
  </g>
  <g id="_443753520" _ngcontent-c18="" vector-effect="non-scaling-stroke">
   <g _ngcontent-c18="" codigo="261370" nome="São Lourenço da Mata" link="/brasil/pe/sao-lourenco-da-mata" faixa="faixa4">
    <polygon class="{{cor}}" points="7300,4154 7301,4162 7282,4170 7249,4180 7246,4198 7209,4198 7185,4188 7178,4201 7128,4190 7120,4155 7104,4140 7120,4132 7153,4103 7155,4098 7211,4099 7231,4080 7267,4071 7270,4086 7281,4087 7281,4087 7283,4089 7283,4089 7283,4089 7283,4089 7287,4096 7287,4096 7288,4097 7288,4097 7282,4113 7286,4153 " _ngcontent-c18=""/>
   </g>
  </g>
  <g id="_443753712" _ngcontent-c18="" vector-effect="non-scaling-stroke">
   <g _ngcontent-c18="" codigo="261380" nome="São Vicente Férrer" link="/brasil/pe/sao-vicente-ferrer" faixa="faixa2">
    <polygon class="{{cor}}" points="6908,3779 6897,3792 6902,3810 6913,3820 6912,3857 6896,3838 6887,3844 6853,3826 6842,3816 6852,3815 6839,3800 6852,3764 6833,3765 6848,3734 6847,3726 6864,3702 6874,3718 6874,3739 6895,3735 6907,3758 " _ngcontent-c18=""/>
   </g>
  </g>
  <g id="_443754000" _ngcontent-c18="" vector-effect="non-scaling-stroke">
   <g _ngcontent-c18="" codigo="261390" nome="Serra Talhada" link="/brasil/pe/serra-talhada" faixa="faixa4">
    <polygon class="{{cor}}" points="4519,3967 4532,3982 4516,4004 4518,4023 4505,4041 4569,4040 4565,4061 4581,4075 4626,4169 4686,4237 4668,4252 4656,4250 4618,4283 4608,4312 4596,4308 4579,4314 4560,4335 4566,4351 4556,4360 4532,4368 4500,4347 4482,4341 4460,4368 4439,4373 4393,4364 4360,4385 4349,4404 4351,4416 4322,4438 4306,4468 4281,4494 4263,4502 4264,4467 4279,4412 4287,4412 4291,4393 4275,4396 4273,4386 4245,4370 4236,4370 4231,4351 4248,4339 4248,4321 4202,4232 4194,4236 4175,4207 4186,4154 4229,4070 4231,4040 4169,3968 4173,3938 4198,3910 4212,3903 4224,3912 4242,3905 4258,3910 4282,3906 4283,3897 4310,3890 4316,3879 4336,3881 4357,3889 4362,3876 4381,3870 4402,3844 4413,3859 4429,3858 4441,3877 4442,3897 4450,3902 4437,3919 4449,3917 4456,3930 4449,3942 4463,3975 4505,3976 " _ngcontent-c18=""/>
   </g>
  </g>
  <g id="_443752800" _ngcontent-c18="" vector-effect="non-scaling-stroke">
   <g _ngcontent-c18="" codigo="261400" nome="Serrita" link="/brasil/pe/serrita" faixa="faixa2">
    <polygon class="{{cor}}" points="3618,3833 3616,3850 3626,3864 3619,3884 3605,3907 3615,3940 3748,3929 3725,3949 3722,3973 3658,4037 3648,4064 3655,4092 3645,4109 3643,4144 3599,4164 3583,4166 3471,4173 3445,4170 3431,4155 3428,4127 3447,4102 3457,4080 3358,4112 3359,4078 3350,4067 3366,4057 3365,4039 3355,4032 3354,4010 3366,3995 3353,3977 3363,3961 3357,3942 3338,3928 3339,3920 3352,3911 3358,3895 3374,3900 3407,3897 3416,3887 3409,3861 3423,3837 3460,3824 3467,3827 3496,3804 3510,3784 3529,3794 3556,3815 3580,3825 3584,3833 " _ngcontent-c18=""/>
   </g>
  </g>
  <g id="_443753232" _ngcontent-c18="" vector-effect="non-scaling-stroke">
   <g _ngcontent-c18="" codigo="261410" nome="Sertânia" link="/brasil/pe/sertania" faixa="faixa3">
    <polygon class="{{cor}}" points="5270,4077 5264,4099 5279,4104 5321,4092 5383,4098 5393,4080 5406,4088 5406,4108 5434,4119 5443,4142 5437,4177 5448,4198 5448,4230 5435,4242 5442,4251 5434,4269 5470,4273 5466,4302 5486,4323 5503,4313 5515,4323 5503,4330 5507,4353 5535,4350 5554,4372 5531,4422 5511,4427 5484,4453 5464,4465 5444,4470 5423,4480 5398,4483 5380,4471 5357,4459 5347,4466 5330,4456 5295,4469 5259,4472 5255,4483 5242,4478 5212,4499 5210,4511 5176,4518 5158,4501 5119,4501 5092,4477 5072,4471 5038,4478 5039,4439 5050,4433 5056,4396 5067,4385 5079,4350 5088,4351 5112,4316 5107,4308 5127,4282 5127,4266 5113,4239 5115,4200 5132,4171 5106,4104 5114,4097 5164,4092 5168,4072 5180,4080 5205,4071 5225,4085 5259,4085 " _ngcontent-c18=""/>
   </g>
  </g>
  <g id="_443752848" _ngcontent-c18="" vector-effect="non-scaling-stroke">
   <g _ngcontent-c18="" codigo="261420" nome="Sirinhaém" link="/brasil/pe/sirinhaem" faixa="faixa4">
    <polygon class="{{cor}}" points="7122,4535 7152,4534 7173,4546 7188,4570 7230,4578 7227,4602 7237,4615 7240,4637 7258,4649 7236,4680 7236,4697 7223,4719 7208,4714 7199,4707 7188,4680 7175,4678 7139,4627 7138,4642 7123,4674 7113,4682 7083,4685 7068,4666 7066,4637 7055,4605 7065,4579 7061,4542 7061,4534 7090,4532 " _ngcontent-c18=""/>
   </g>
  </g>
  <g id="_443752128" _ngcontent-c18="" vector-effect="non-scaling-stroke">
   <g _ngcontent-c18="" codigo="261430" nome="Moreilândia" link="/brasil/pe/moreilandia" faixa="faixa1">
    <polygon class="{{cor}}" points="3510,3784 3496,3804 3467,3827 3460,3824 3423,3837 3409,3861 3416,3887 3407,3897 3374,3900 3358,3895 3352,3911 3339,3920 3323,3907 3317,3867 3326,3851 3316,3810 3329,3801 3329,3786 3350,3775 3371,3750 3364,3725 3377,3699 3377,3677 3415,3660 3424,3666 3451,3666 3455,3692 3430,3719 3440,3754 3468,3754 3483,3766 3486,3781 " _ngcontent-c18=""/>
   </g>
  </g>
  <g id="_443752440" _ngcontent-c18="" vector-effect="non-scaling-stroke">
   <g _ngcontent-c18="" codigo="261440" nome="Solidão" link="/brasil/pe/solidao" faixa="faixa1">
    <polygon class="{{cor}}" points="5038,3713 5069,3777 5090,3811 5069,3802 5045,3800 5026,3810 5011,3792 4988,3784 4965,3792 4929,3785 4939,3775 4944,3760 4963,3751 4963,3734 4984,3732 5007,3711 5029,3719 " _ngcontent-c18=""/>
   </g>
  </g>
  <g id="_443751984" _ngcontent-c18="" vector-effect="non-scaling-stroke">
   <g _ngcontent-c18="" codigo="261450" nome="Surubim" link="/brasil/pe/surubim" faixa="faixa4">
    <polygon class="{{cor}}" points="6648,3957 6657,3972 6663,3963 6674,3977 6686,3977 6704,3990 6706,4010 6697,4030 6709,4044 6735,4064 6733,4074 6702,4087 6658,4092 6643,4100 6628,4096 6602,4099 6592,4085 6590,4066 6599,4049 6592,4033 6588,4001 6567,3957 6573,3962 6605,3952 6630,3960 " _ngcontent-c18=""/>
   </g>
  </g>
  <g id="_443751816" _ngcontent-c18="" vector-effect="non-scaling-stroke">
   <g _ngcontent-c18="" codigo="261460" nome="Tabira" link="/brasil/pe/tabira" faixa="faixa3">
    <polygon class="{{cor}}" points="5184,3721 5199,3730 5201,3768 5195,3774 5213,3814 5199,3833 5162,3837 5145,3847 5141,3862 5123,3872 5108,3879 5092,3876 5096,3866 5092,3837 5098,3832 5090,3811 5069,3777 5038,3713 5047,3698 5079,3681 5105,3672 5117,3661 5122,3639 5149,3655 5184,3703 " _ngcontent-c18=""/>
   </g>
  </g>
  <g id="_443751576" _ngcontent-c18="" vector-effect="non-scaling-stroke">
   <g _ngcontent-c18="" codigo="261470" nome="Tacaimbó" link="/brasil/pe/tacaimbo" faixa="faixa1">
    <polygon class="{{cor}}" points="6268,4325 6275,4343 6239,4366 6246,4408 6254,4425 6234,4468 6248,4482 6241,4513 6144,4462 6148,4451 6123,4457 6146,4399 6147,4377 6172,4369 6204,4366 6217,4360 6255,4328 6256,4316 " _ngcontent-c18=""/>
   </g>
  </g>
  <g id="_443751432" _ngcontent-c18="" vector-effect="non-scaling-stroke">
   <g _ngcontent-c18="" codigo="261480" nome="Tacaratu" link="/brasil/pe/tacaratu" faixa="faixa3">
    <polygon class="{{cor}}" points="4860,4926 4849,4965 4837,4984 4814,4997 4807,5014 4752,5068 4735,5091 4729,5111 4701,5118 4653,5134 4631,5133 4539,5115 4533,5074 4527,4966 4533,4941 4524,4901 4525,4887 4507,4859 4654,4712 4668,4713 4676,4690 4689,4684 4705,4708 4705,4952 4716,4981 4729,5001 4743,4984 4768,4982 4812,4941 4824,4949 4844,4931 " _ngcontent-c18=""/>
   </g>
  </g>
  <g id="_443751048" _ngcontent-c18="" vector-effect="non-scaling-stroke">
   <g _ngcontent-c18="" codigo="261485" nome="Tamandaré" link="/brasil/pe/tamandare" faixa="faixa2">
    <polygon class="{{cor}}" points="7208,4714 7223,4719 7229,4734 7219,4748 7222,4765 7207,4783 7208,4799 7188,4813 7165,4790 7131,4789 7104,4772 7094,4775 7077,4797 7024,4805 6985,4817 7003,4766 7002,4747 7069,4713 7175,4756 7182,4761 7213,4749 " _ngcontent-c18=""/>
   </g>
  </g>
  <g id="_443750496" _ngcontent-c18="" vector-effect="non-scaling-stroke">
   <g _ngcontent-c18="" codigo="261500" nome="Taquaritinga do Norte" link="/brasil/pe/taquaritinga-do-norte" faixa="faixa3">
    <polygon class="{{cor}}" points="6432,3960 6414,3966 6426,4016 6423,4032 6408,4049 6390,4086 6373,4105 6350,4126 6338,4119 6338,4096 6292,4092 6288,4070 6225,4029 6205,4008 6207,3977 6227,3965 6215,3946 6248,3919 6264,3941 6276,3936 6325,3936 6348,3931 6375,3933 6386,3949 6404,3946 6416,3958 " _ngcontent-c18=""/>
   </g>
  </g>
  <g id="_443750448" _ngcontent-c18="" vector-effect="non-scaling-stroke">
   <g _ngcontent-c18="" codigo="261510" nome="Terezinha" link="/brasil/pe/terezinha" faixa="faixa1">
    <polygon class="{{cor}}" points="5885,5002 5917,5013 5933,5028 5935,5040 5965,5053 5965,5071 5975,5071 5949,5087 5910,5089 5894,5083 5868,5094 5825,5082 5840,5043 5841,5001 " _ngcontent-c18=""/>
   </g>
  </g>
  <g id="_386605400" _ngcontent-c18="" vector-effect="non-scaling-stroke">
   <g _ngcontent-c18="" codigo="261520" nome="Terra Nova" link="/brasil/pe/terra-nova" faixa="faixa1">
    <polygon class="{{cor}}" points="3575,4279 3543,4297 3532,4295 3521,4329 3521,4346 3398,4268 3435,4256 3476,4231 3478,4195 3471,4173 3583,4166 3575,4217 3591,4237 3592,4253 " _ngcontent-c18=""/>
   </g>
  </g>
  <g id="_397952864" _ngcontent-c18="" vector-effect="non-scaling-stroke">
   <g _ngcontent-c18="" codigo="261530" nome="Timbaúba" link="/brasil/pe/timbauba" faixa="faixa4">
    <polygon class="{{cor}}" points="7001,3624 7025,3670 7033,3686 7067,3688 7068,3683 7096,3695 7117,3710 7108,3718 7077,3729 7061,3769 7032,3787 6996,3786 6963,3793 6927,3791 6940,3757 6926,3759 6947,3738 6938,3687 6922,3666 6941,3665 6945,3657 6972,3647 6992,3640 " _ngcontent-c18=""/>
   </g>
  </g>
  <g id="_400133976" _ngcontent-c18="" vector-effect="non-scaling-stroke">
   <g _ngcontent-c18="" codigo="261540" nome="Toritama" link="/brasil/pe/toritama" faixa="faixa3">
    <polygon class="{{cor}}" points="6424,4111 6425,4125 6397,4127 6364,4141 6350,4126 6373,4105 6392,4111 " _ngcontent-c18=""/>
   </g>
  </g>
  <g id="_400133736" _ngcontent-c18="" vector-effect="non-scaling-stroke">
   <g _ngcontent-c18="" codigo="261550" nome="Tracunhaém" link="/brasil/pe/tracunhaem" faixa="faixa1">
    <polygon class="{{cor}}" points="7191,3837 7192,3838 7217,3857 7212,3876 7211,3883 7201,3906 7176,3945 7171,3972 7102,3968 7079,3957 7082,3946 7130,3914 7143,3912 7150,3887 7162,3871 7159,3854 7180,3846 7178,3826 " _ngcontent-c18=""/>
   </g>
  </g>
  <g id="_400132488" _ngcontent-c18="" vector-effect="non-scaling-stroke">
   <g _ngcontent-c18="" codigo="261560" nome="Trindade" link="/brasil/pe/trindade" faixa="faixa3">
    <polygon class="{{cor}}" points="2780,3850 2782,3965 2688,3991 2681,3971 2676,3871 2707,3817 2751,3744 " _ngcontent-c18=""/>
   </g>
  </g>
  <g id="_400132872" _ngcontent-c18="" vector-effect="non-scaling-stroke">
   <g _ngcontent-c18="" codigo="261570" nome="Triunfo" link="/brasil/pe/triunfo" faixa="faixa2">
    <polygon class="{{cor}}" points="4710,3931 4692,3942 4702,3964 4702,3994 4711,4009 4688,4041 4665,4054 4650,4053 4639,4067 4636,4057 4607,4043 4589,4021 4581,4002 4583,3988 4607,3966 4644,3976 4654,3966 4645,3954 4650,3926 4676,3905 4684,3906 " _ngcontent-c18=""/>
   </g>
  </g>
  <g id="_400132656" _ngcontent-c18="" vector-effect="non-scaling-stroke">
   <g _ngcontent-c18="" codigo="261580" nome="Tupanatinga" link="/brasil/pe/tupanatinga" faixa="faixa3">
    <polygon class="{{cor}}" points="5380,4471 5312,4676 5322,4692 5323,4723 5350,4761 5369,4766 5389,4763 5414,4770 5422,4782 5440,4784 5437,4793 5473,4829 5505,4868 5496,4894 5502,4914 5492,4945 5485,4950 5452,4937 5426,4933 5404,4909 5401,4898 5383,4885 5369,4835 5352,4822 5322,4833 5298,4835 5291,4845 5273,4840 5257,4822 5217,4824 5236,4562 5255,4483 5259,4472 5295,4469 5330,4456 5347,4466 5357,4459 " _ngcontent-c18=""/>
   </g>
  </g>
  <g id="_400132344" _ngcontent-c18="" vector-effect="non-scaling-stroke">
   <g _ngcontent-c18="" codigo="261590" nome="Tuparetama" link="/brasil/pe/tuparetama" faixa="faixa1">
    <polygon class="{{cor}}" points="5443,3877 5452,3902 5437,3926 5441,3932 5425,3950 5421,3912 5411,3902 5364,3900 5356,3879 5327,3867 5293,3881 5270,3846 5273,3821 5247,3800 5271,3781 5302,3773 5366,3852 5378,3854 5407,3874 5423,3867 " _ngcontent-c18=""/>
   </g>
  </g>
  <g id="_400145928" _ngcontent-c18="" vector-effect="non-scaling-stroke">
   <g _ngcontent-c18="" codigo="261600" nome="Venturosa" link="/brasil/pe/venturosa" faixa="faixa2">
    <polygon class="{{cor}}" points="5780,4638 5806,4645 5809,4681 5839,4700 5829,4746 5768,4753 5757,4731 5730,4716 5709,4694 5648,4650 5659,4618 5655,4611 5680,4589 5694,4563 5703,4523 5726,4486 5722,4556 5756,4591 5763,4608 5763,4641 " _ngcontent-c18=""/>
   </g>
  </g>
  <g id="_400145664" _ngcontent-c18="" vector-effect="non-scaling-stroke">
   <g _ngcontent-c18="" codigo="261610" nome="Verdejante" link="/brasil/pe/verdejante" faixa="faixa1">
    <polygon class="{{cor}}" points="3881,3987 3892,4029 3908,4050 3924,4060 3928,4084 3942,4091 3953,4131 3949,4167 3925,4197 3913,4203 3895,4196 3878,4200 3873,4188 3852,4176 3839,4186 3825,4172 3792,4174 3784,4191 3759,4147 3769,4132 3764,4122 3784,4092 3787,4062 3778,4057 3782,4039 3795,4034 3801,4010 3835,3971 3833,3960 3847,3984 3877,3989 " _ngcontent-c18=""/>
   </g>
  </g>
  <g id="_400145400" _ngcontent-c18="" vector-effect="non-scaling-stroke">
   <g _ngcontent-c18="" codigo="261618" nome="Vertente do Lério" link="/brasil/pe/vertente-do-lerio" faixa="faixa1">
    <polygon class="{{cor}}" points="6615,3898 6636,3925 6635,3936 6648,3957 6630,3960 6605,3952 6573,3962 6567,3957 6561,3937 6537,3920 6536,3910 6563,3904 6585,3906 " _ngcontent-c18=""/>
   </g>
  </g>
  <g id="_400145040" _ngcontent-c18="" vector-effect="non-scaling-stroke">
   <g _ngcontent-c18="" codigo="261620" nome="Vertentes" link="/brasil/pe/vertentes" faixa="faixa2">
    <polygon class="{{cor}}" points="6483,3941 6508,3989 6502,4007 6511,4018 6511,4032 6472,4034 6463,4042 6466,4076 6462,4099 6470,4113 6430,4101 6424,4111 6392,4111 6373,4105 6390,4086 6408,4049 6423,4032 6426,4016 6414,3966 6432,3960 6457,3942 " _ngcontent-c18=""/>
   </g>
  </g>
  <g id="_400145448" _ngcontent-c18="" vector-effect="non-scaling-stroke">
   <g _ngcontent-c18="" codigo="261630" nome="Vicência" link="/brasil/pe/vicencia" faixa="faixa3">
    <polygon class="{{cor}}" points="7073,3842 7041,3873 7019,3866 6990,3872 6978,3859 6965,3884 6941,3898 6935,3882 6912,3857 6913,3820 6902,3810 6897,3792 6908,3779 6927,3791 6963,3793 6996,3786 7032,3787 7061,3769 7075,3815 " _ngcontent-c18=""/>
   </g>
  </g>
  <g id="_400144704" _ngcontent-c18="" vector-effect="non-scaling-stroke">
   <g _ngcontent-c18="" codigo="261640" nome="Vitória de Santo Antão" link="/brasil/pe/vitoria-de-santo-antao" faixa="faixa4">
    <polygon class="{{cor}}" points="7128,4190 7100,4255 7111,4284 7101,4300 7088,4304 7082,4282 7068,4331 7058,4368 7064,4377 7038,4387 7004,4376 6987,4381 6981,4380 7005,4362 7022,4277 7000,4223 6926,4192 6962,4186 6999,4166 7040,4183 7061,4169 7072,4172 7100,4149 7104,4140 7120,4155 " _ngcontent-c18=""/>
   </g>
  </g>
  <g id="_400144464" _ngcontent-c18="" vector-effect="non-scaling-stroke">
   <g _ngcontent-c18="" codigo="261650" nome="Xexéu" link="/brasil/pe/xexeu" faixa="faixa2">
    <polygon class="{{cor}}" points="6794,4852 6751,4882 6734,4882 6733,4882 6718,4895 6673,4906 6716,4868 6675,4812 6774,4791 6760,4820 6776,4841 " _ngcontent-c18=""/>
   </g>
  </g>
 </g>
</svg>
